<svg fill="none" height="24" viewBox="0 0 24 24" width="24" xmlns="http://www.w3.org/2000/svg"><path d="m14.25 7.5v-2.25c0-.52311 0-.78466-.0575-.99926-.156-.58234-.6109-1.0372-1.1932-1.19324-.2146-.0575-.4762-.0575-.9993-.0575s-.7847 0-.9993.0575c-.5823.15604-1.03716.6109-1.1932 1.19324-.0575.2146-.0575.47615-.0575.99926v2.25c0 1.06066 0 1.59099-.3295 1.9205-.32951.3295-.85984.3295-1.9205.3295h-2.25c-.52311 0-.78466 0-.99926.0575-.58234.15604-1.0372.6109-1.19324 1.1932-.0575.2146-.0575.4762-.0575.9993s0 .7847.0575.9993c.15604.5823.6109 1.0372 1.19324 1.1932.2146.0575.47615.0575.99926.0575h2.25c1.06066 0 1.59099 0 1.9205.3295.3295.3295.3295.8598.3295 1.9205v2.25c0 .5231 0 .7847.0575.9993.15604.5823.6109 1.0372 1.1932 1.1932.2146.0575.4762.0575.9993.0575s.7847 0 .9993-.0575c.5823-.156 1.0372-.6109 1.1932-1.1932.0575-.2146.0575-.4762.0575-.9993v-2.25c0-1.0607 0-1.591.3295-1.9205s.8598-.3295 1.9205-.3295h2.25c.5231 0 .7847 0 .9993-.0575.5823-.156 1.0372-.6109 1.1932-1.1932.0575-.2146.0575-.4762.0575-.9993s0-.7847-.0575-.9993c-.156-.5823-.6109-1.03716-1.1932-1.1932-.2146-.0575-.4762-.0575-.9993-.0575h-2.25c-1.0607 0-1.591 0-1.9205-.3295-.3295-.32951-.3295-.85984-.3295-1.9205z" stroke="#141b34" stroke-linecap="round" stroke-linejoin="round" stroke-width="1.5"/></svg>