<svg fill="none" height="24" viewBox="0 0 24 24" width="24" xmlns="http://www.w3.org/2000/svg"><path d="m17.2624 10.2458 1.7541-1.75413c.4079-.40782.6118-.61173.7342-.82386.3324-.57565.3324-1.28488 0-1.86054-.1224-.21212-.3263-.41604-.7342-.82386-.4078-.40782-.6117-.61173-.8238-.73421-.5757-.33235-1.2849-.33235-1.8606 0-.2121.12248-.416.32639-.8238.73421l-1.7542 1.75413c-.8269.82691-1.2403 1.24036-1.7541 1.24036s-.9272-.41345-1.7541-1.24036l-1.75416-1.75413c-.40783-.40782-.61174-.61173-.82387-.73421-.57565-.33235-1.28488-.33235-1.86053 0-.21213.12248-.41604.32639-.82387.73421-.40782.40782-.61173.61174-.7342.82386-.33236.57566-.33236 1.28489-.00001 1.86054.12248.21213.32639.41604.73421.82387l1.75413 1.75412c.82691.8269 1.24036 1.2404 1.24036 1.7541 0 .5138-.41345.9273-1.24036 1.7542l-1.75413 1.7541c-.40782.4078-.61173.6117-.73421.8239-.33235.5756-.33235 1.2849 0 1.8605.12248.2121.32639.416.73421.8239.40783.4078.61174.6117.82386.7342.57566.3323 1.28489.3323 1.86054 0 .21213-.1225.41604-.3264.82387-.7342l1.75416-1.7542c.8269-.8269 1.2403-1.2403 1.7541-1.2403s.9272.4134 1.7541 1.2403l1.7542 1.7542c.4078.4078.6117.6117.8238.7342.5757.3323 1.2849.3323 1.8606 0 .2121-.1225.416-.3264.8238-.7342.4079-.4079.6118-.6118.7342-.8239.3324-.5756.3324-1.2849 0-1.8605-.1224-.2122-.3263-.4161-.7342-.8239l-1.7541-1.7541c-.8269-.8269-1.2404-1.2404-1.2404-1.7542 0-.5137.4135-.9272 1.2404-1.7541z" stroke="#141b34" stroke-linecap="round" stroke-linejoin="round" stroke-width="1.5"/></svg>