<svg fill="none" height="24" viewBox="0 0 24 24" width="24" xmlns="http://www.w3.org/2000/svg"><g stroke="#141b34" stroke-linecap="round" stroke-width="1.5"><path d="m2 12c0 5.5228 4.47715 10 10 10 5.5228 0 10-4.4772 10-10 0-5.52286-4.4772-10.00002-10-10.00002"/><g stroke-linejoin="round"><path d="m4.64856 5.07874c.13835-.14664.28092-.28926.42754-.42765m2.87123-1.92171c.18151-.08159.3658-.15812.55267-.2294m-5.76828 5.44193c-.08247.18326-.15977.36935-.23172.55808"/><path d="m15 9-3 3m0 0-3 3m3-3 3 3m-3-3-3-3"/></g></g></svg>