<svg fill="none" height="24" viewBox="0 0 24 24" width="24" xmlns="http://www.w3.org/2000/svg"><g stroke="#141b34" stroke-linecap="round" stroke-width="1.5"><path d="m19.5 5.5-.4018 6.5062m-14.5982-6.5062.60461 10.0248c.15484 2.5674.23227 3.8511.87407 4.7742.31732.4564.72612.8417 1.20037 1.1312.6713.4098 1.50203.5329 2.82095.5698"/><path d="m20 15-7 6.9995m7 .0005-7-6.9995" stroke-linejoin="round"/><path d="m3 5.5h18m-4.9443 0-.6826-1.40827c-.4535-.93547-.6803-1.40321-1.0714-1.69492-.0867-.06471-.1786-.12227-.2747-.17211-.4331-.2247-.9529-.2247-1.9925-.2247-1.0657 0-1.5985 0-2.03882.23412-.09758.05189-.1907.11178-.27839.17905-.39565.30353-.61666.78838-1.05868 1.75809l-.60569 1.32874"/></g></svg>