<svg fill="none" height="24" viewBox="0 0 24 24" width="24" xmlns="http://www.w3.org/2000/svg"><path d="m3 5.5h18m-4.9445 0-.6826-1.40827c-.4535-.93547-.6803-1.40321-1.0714-1.69492-.0867-.06471-.1786-.12227-.2747-.17211-.4331-.2247-.9529-.2247-1.9925-.2247-1.0657 0-1.5985 0-2.03881.23412-.09758.05189-.1907.11178-.27839.17905-.39565.30353-.61666.78838-1.05868 1.75809l-.60569 1.32874" stroke="#141b34" stroke-linecap="round" stroke-width="1.5"/><path d="m5.24863 5.45462c-.02507-.41346-.38056-.72831-.79401-.70325-.41346.02507-.72831.38056-.70325.79401zm-.16192 9.72348.74863-.0454zm7.94899.0719c-.4142 0-.75.3358-.75.75s.3358.75.75.75zm5.9226 4.2432.7397.1238zm-12.81058 1.0086.58424-.4703zm.81532.7644-.43176.6132zm5.03696-5.2662h.75zm3.0227-1.9622c.2971-.2887.3038-.7635.0151-1.0605-.2887-.2971-.7635-.3038-1.0605-.0151zm-1.0454 5c.297.2887.7718.282 1.0605-.0151.2887-.297.282-.7718-.0151-1.0605zm4.2742-5.5846c-.0259.4134.2883.7695.7017.7953.4134.0259.7695-.2883.7953-.7017zm1.997-7.90642c.0259-.4134-.2883-.76948-.7017-.79532s-.7695.28835-.7953.70176zm-16.49713-.0014.58672 9.67812 1.49725-.0908-.58671-9.67808zm12.23533 15.70462h-3.6234v1.5h3.6234zm0-6h-2.951v1.5h2.951zm3.7113 4.367c.3832-2.2896-1.3898-4.367-3.7113-4.367v1.5c1.4016 0 2.4607 1.2518 2.2319 2.6194zm-1.4794-.2476c-.1813 1.0829-1.1234 1.8806-2.2319 1.8806v1.5c1.8368 0 3.4083-1.3228 3.7113-3.133zm-13.88051-4.1459c.08653 1.4274.15404 2.5578.30595 3.4529.15442.9099.40788 1.6601.91944 2.2957l1.16848-.9406c-.28684-.3563-.47635-.824-.60906-1.606-.13523-.7968-.19902-1.8323-.28756-3.2928zm8.02521 6.0265c-1.4691 0-2.51146-.001-3.31888-.0875-.7929-.0849-1.27436-.2454-1.64963-.5096l-.86351 1.2265c.66706.4697 1.43309.6761 2.35342.7746.9058.097 2.0424.096 3.4786.096zm-6.79982-.2779c.27855.346.60433.6514.9678.9073l.86352-1.2265c-.2491-.1754-.4722-.3846-.66284-.6214zm7.18652-4.9721c0 .0832-.0267.1116-.0021.0656.0215-.0401.0653-.1055.1426-.1962.1551-.1821.3835-.3956.6547-.6255.268-.227.5523-.449.8141-.6546.2447-.1922.5019-.3944.6634-.5515l-1.0454-1.0756c-.0913.0887-.2731.2343-.5445.4475-.2544.1998-.5635.4409-.8573.6898-.2905.2462-.5923.5218-.827.7973-.1175.138-.2335.2936-.3231.461-.0864.1615-.1754.3839-.1754.6422zm2.2727 1.9622c-.1615-.1571-.4187-.3593-.6634-.5515-.2618-.2056-.5461-.4276-.8141-.6546-.2712-.2299-.4996-.4434-.6547-.6255-.0773-.0907-.1211-.1561-.1426-.1962-.0246-.046.0021-.0176.0021.0656h-1.5c0 .2583.089.4807.1754.6422.0896.1674.2056.323.3231.461.2347.2755.5365.5511.827.7973.2938.2489.6029.49.8573.6898.2714.2132.4532.3588.5445.4475zm4.7258-4.4154.5-8.00002-1.497-.09356-.5 7.99998z" fill="#141b34"/></svg>