<svg fill="none" height="24" viewBox="0 0 24 24" width="24" xmlns="http://www.w3.org/2000/svg"><g stroke="#141b34" stroke-width="1.5"><path d="m2 12c0-3.77124 0-5.65685 1.17157-6.82843 1.17158-1.17157 3.05719-1.17157 6.82843-1.17157h3c1.9628 0 2.9443 0 3.7889.42229.8445.42229 1.4334 1.20743 2.6111 2.77771 1.7333 2.31111 2.6 3.4667 2.6 4.8s-.8667 2.4889-2.6 4.8c-1.1777 1.5703-1.7666 2.3554-2.6111 2.7777-.8446.4223-1.8261.4223-3.7889.4223h-3c-3.77124 0-5.65685 0-6.82843-1.1716-1.17157-1.1715-1.17157-3.0572-1.17157-6.8284z"/><path d="m14 9-6 5.9996m6 .0004-6-5.99961" stroke-linecap="round" stroke-linejoin="round"/></g></svg>