<svg fill="none" height="24" viewBox="0 0 24 24" width="24" xmlns="http://www.w3.org/2000/svg"><path d="m3 12c0-.5812 0-.8718.0575-1.1103.15604-.647.6109-1.15244 1.19324-1.32581.2146-.06389.47615-.06389.99926-.06389h13.5c.5231 0 .7847 0 .9993.06389.5823.17337 1.0372.67881 1.1932 1.32581.0575.2385.0575.5291.0575 1.1103s0 .8718-.0575 1.1103c-.156.647-.6109 1.1524-1.1932 1.3258-.2146.0639-.4762.0639-.9993.0639h-13.5c-.52311 0-.78466 0-.99926-.0639-.58234-.1734-1.0372-.6788-1.19324-1.3258-.0575-.2385-.0575-.5291-.0575-1.1103z" stroke="#141b34" stroke-width="1.5"/></svg>