<svg fill="none" height="24" viewBox="0 0 24 24" width="24" xmlns="http://www.w3.org/2000/svg"><g stroke="#141b34" stroke-linecap="round" stroke-width="1.5"><path d="m19.5 5.5-.5 6m-14.5-6 .60461 10.0368c.15484 2.5705.23227 3.8557.87407 4.7799.31732.457.72612.8427 1.20037 1.1326.58222.3558 1.28438.4957 2.32095.5507"/><path d="m11 15.5 1.1363 1.4657c.5717-2.1338 2.7651-3.4002 4.8989-2.8284 1.0923.2927 1.9573 1.0102 2.4648 1.9273m1.5 4.4354-1.1363-1.4637c-.5718 2.1338-2.7651 3.4002-4.899 2.8284-1.0669-.2859-1.917-.9772-2.4288-1.8637" stroke-linejoin="round"/><path d="m3 5.5h18m-4.9443 0-.6826-1.40827c-.4535-.93547-.6803-1.40321-1.0714-1.69492-.0867-.06471-.1786-.12227-.2747-.17211-.4331-.2247-.9529-.2247-1.9925-.2247-1.0657 0-1.5985 0-2.03882.23412-.09758.05189-.1907.11178-.27839.17905-.39565.30353-.61666.78838-1.05868 1.75809l-.60569 1.32874"/></g></svg>