<svg fill="none" height="24" viewBox="0 0 24 24" width="24" xmlns="http://www.w3.org/2000/svg"><g stroke="#141b34" stroke-linecap="round" stroke-width="1.5"><path d="m3 5h5.42963c.66871 0 1.29317-.3342 1.66407-.8906l.8126-1.2188c.3709-.5564.9954-.8906 1.6641-.8906h4.4881c.8608 0 1.6251.55086 1.8973 1.36754l.5442 1.63246m1.5 0h-13"/><path d="m19.5 5-.5 6.5m-14.5-6.5.60461 10.5362c.15484 2.5707.23227 3.8561.87407 4.7804.31732.457.72612.8427 1.20037 1.1326.58222.3559 1.28438.4958 2.32095.5508"/><path d="m11 15.498 1.1363 1.4658c.5717-2.1339 2.7651-3.4002 4.8989-2.8285 1.0923.2927 1.9573 1.0103 2.4648 1.9273m1.5 4.4354-1.1363-1.4637c-.5718 2.1339-2.7651 3.4002-4.899 2.8284-1.0669-.2858-1.917-.9771-2.4288-1.8637" stroke-linejoin="round"/></g></svg>