<svg fill="none" height="24" viewBox="0 0 24 24" width="24" xmlns="http://www.w3.org/2000/svg"><g stroke="#141b34" stroke-width="1.5"><path d="m3 5h5.42963c.66871 0 1.29317-.3342 1.66407-.8906l.8126-1.2188c.3709-.5564.9954-.8906 1.6641-.8906h4.4881c.8608 0 1.6251.55086 1.8973 1.36754l.5442 1.63246m1.5 0h-13" stroke-linecap="round"/><path d="m19.5 5-.6197 9.906c-.0215.3273-.0416.6325-.0618.9175m-14.3185-10.8235.60461 9.8966c.15484 2.4141.23227 3.6211.87407 4.4891.31732.4292.72612.7914 1.20037 1.0636.95925.5507 2.24407.5507 4.81365.5507h2.5073" stroke-linecap="round"/><path d="m20 19c0-1.6569-1.3431-3-3-3s-3 1.3431-3 3 1.3431 3 3 3 3-1.3431 3-3z"/></g></svg>