<svg fill="none" height="24" viewBox="0 0 24 24" width="24" xmlns="http://www.w3.org/2000/svg"><path d="M9.540 1.282 C 7.650 1.325,6.827 1.421,5.957 1.703 C 5.149 1.964,4.549 2.332,3.941 2.941 C 2.982 3.900,2.526 4.996,2.360 6.740 C 2.212 8.289,2.212 15.711,2.360 17.260 C 2.526 19.004,2.982 20.100,3.941 21.059 C 4.895 22.014,5.993 22.473,7.720 22.639 C 8.611 22.725,11.924 22.770,13.930 22.724 C 14.992 22.699,16.049 22.661,16.280 22.639 C 18.003 22.473,19.107 22.012,20.059 21.059 C 21.016 20.103,21.476 18.997,21.640 17.260 C 21.787 15.704,21.787 8.296,21.640 6.740 C 21.476 5.003,21.016 3.897,20.059 2.941 C 19.100 1.982,18.004 1.526,16.260 1.360 C 15.239 1.263,12.045 1.226,9.540 1.282 M16.080 2.836 C 17.697 3.009,18.553 3.403,19.280 4.306 C 19.796 4.948,20.034 5.665,20.167 6.980 C 20.242 7.721,20.243 16.220,20.168 16.995 C 20.008 18.650,19.647 19.469,18.735 20.245 C 18.116 20.773,17.352 21.032,16.020 21.167 C 15.278 21.243,8.722 21.243,7.980 21.167 C 6.665 21.034,5.948 20.796,5.306 20.280 C 4.389 19.542,4.002 18.685,3.833 17.020 C 3.757 16.271,3.757 7.729,3.833 6.980 C 3.966 5.665,4.204 4.948,4.720 4.306 C 5.562 3.260,6.596 2.876,8.820 2.785 C 9.636 2.752,15.690 2.794,16.080 2.836 M6.720 8.805 C 6.458 8.909,6.269 9.200,6.269 9.500 C 6.269 9.807,6.460 10.095,6.733 10.197 C 6.810 10.227,8.162 10.240,11.000 10.240 C 13.838 10.240,15.190 10.227,15.267 10.197 C 15.540 10.095,15.731 9.807,15.731 9.500 C 15.731 9.193,15.540 8.905,15.267 8.803 C 15.117 8.746,6.863 8.748,6.720 8.805 M6.720 13.805 C 6.458 13.909,6.269 14.200,6.269 14.500 C 6.269 14.807,6.460 15.095,6.733 15.197 C 6.806 15.225,7.428 15.240,8.500 15.240 C 9.572 15.240,10.194 15.225,10.267 15.197 C 10.540 15.095,10.731 14.807,10.731 14.500 C 10.731 14.193,10.540 13.905,10.267 13.803 C 10.120 13.747,6.861 13.749,6.720 13.805 " stroke="none" fill-rule="evenodd" fill="black"></path></svg>