<svg fill="none" height="24" viewBox="0 0 24 24" width="24" xmlns="http://www.w3.org/2000/svg"><path d="M11.560 1.281 C 9.651 1.442,7.978 2.630,7.212 4.370 C 6.811 5.281,6.760 5.649,6.760 7.676 L 6.760 9.292 6.390 9.676 C 4.157 11.989,3.621 15.510,5.058 18.420 C 5.709 19.738,6.711 20.840,7.960 21.610 C 10.143 22.957,12.993 23.107,15.317 21.997 C 16.117 21.616,16.710 21.203,17.355 20.581 C 18.076 19.884,18.513 19.289,18.942 18.420 C 20.379 15.512,19.842 11.988,17.610 9.676 L 17.240 9.292 17.240 7.676 C 17.240 6.442,17.226 5.975,17.181 5.700 C 16.902 4.000,15.893 2.611,14.365 1.825 C 13.530 1.396,12.520 1.200,11.560 1.281 M13.000 2.892 C 13.463 3.031,13.807 3.193,14.140 3.430 C 15.009 4.047,15.571 4.969,15.717 6.015 C 15.756 6.296,15.781 8.200,15.745 8.200 C 15.737 8.200,15.542 8.110,15.312 8.000 C 15.083 7.891,14.679 7.730,14.415 7.643 C 12.547 7.030,10.445 7.161,8.688 8.000 C 8.458 8.110,8.261 8.200,8.251 8.200 C 8.240 8.200,8.240 7.691,8.251 7.070 C 8.266 6.201,8.285 5.880,8.336 5.680 C 8.712 4.199,9.785 3.154,11.267 2.823 C 11.697 2.727,12.563 2.761,13.000 2.892 M13.255 8.878 C 14.206 9.084,15.082 9.489,15.820 10.063 C 16.185 10.346,16.739 10.906,17.005 11.260 C 17.529 11.957,17.926 12.843,18.127 13.766 C 18.205 14.121,18.218 14.297,18.218 15.000 C 18.218 15.703,18.205 15.879,18.127 16.234 C 18.013 16.756,17.878 17.158,17.656 17.633 C 17.328 18.337,17.032 18.765,16.482 19.334 C 15.591 20.258,14.526 20.845,13.234 21.127 C 12.879 21.205,12.703 21.218,12.000 21.218 C 11.297 21.218,11.121 21.205,10.766 21.127 C 9.474 20.845,8.409 20.258,7.518 19.334 C 6.968 18.765,6.672 18.337,6.344 17.633 C 6.122 17.158,5.987 16.756,5.873 16.234 C 5.795 15.879,5.782 15.703,5.782 15.000 C 5.782 14.297,5.795 14.121,5.873 13.766 C 6.028 13.057,6.309 12.342,6.666 11.747 C 7.137 10.964,7.971 10.129,8.740 9.672 C 9.465 9.240,10.127 8.993,10.980 8.836 C 11.538 8.733,12.684 8.754,13.255 8.878 M11.805 13.279 C 11.514 13.350,11.300 13.606,11.259 13.932 C 11.245 14.046,11.240 14.608,11.247 15.180 C 11.258 16.056,11.270 16.239,11.326 16.340 C 11.402 16.478,11.536 16.607,11.680 16.682 C 11.820 16.754,12.194 16.746,12.345 16.668 C 12.498 16.588,12.670 16.391,12.710 16.247 C 12.727 16.188,12.740 15.627,12.740 15.000 C 12.740 14.373,12.727 13.812,12.710 13.753 C 12.672 13.616,12.500 13.412,12.365 13.343 C 12.220 13.269,11.967 13.240,11.805 13.279 " stroke="none" fill-rule="evenodd" fill="black"></path></svg>