<svg fill="none" height="24" viewBox="0 0 24 24" width="24" xmlns="http://www.w3.org/2000/svg"><path d="M10.860 1.260 C 10.838 1.267,10.769 1.284,10.706 1.298 C 10.302 1.388,9.102 2.992,8.459 4.300 C 8.062 5.109,7.876 5.597,7.697 6.306 C 7.483 7.151,7.423 7.637,7.424 8.520 C 7.425 9.383,7.488 9.915,7.676 10.646 C 7.738 10.885,7.775 11.080,7.758 11.080 C 7.742 11.080,7.623 11.002,7.493 10.906 C 7.158 10.660,6.780 10.161,6.487 9.576 C 6.359 9.320,6.084 8.498,5.997 8.106 C 5.909 7.712,5.852 7.580,5.714 7.455 C 5.561 7.317,5.436 7.269,5.222 7.267 C 4.873 7.264,4.727 7.373,4.387 7.890 C 3.449 9.313,2.790 10.767,2.485 12.080 C 2.326 12.763,2.270 13.274,2.271 14.040 C 2.273 15.436,2.535 16.575,3.142 17.835 C 4.545 20.741,7.486 22.661,10.640 22.729 C 11.100 22.739,11.153 22.733,11.301 22.648 C 11.558 22.500,11.660 22.316,11.660 22.000 C 11.660 21.782,11.642 21.708,11.561 21.589 C 11.385 21.332,11.227 21.276,10.587 21.237 C 10.275 21.219,9.824 21.166,9.585 21.119 C 6.725 20.565,4.461 18.288,3.878 15.378 C 3.755 14.764,3.727 13.728,3.816 13.113 C 3.895 12.565,4.062 11.912,4.261 11.377 C 4.460 10.838,4.964 9.805,4.990 9.880 C 5.050 10.053,5.420 10.753,5.576 10.989 C 6.134 11.834,6.884 12.438,7.649 12.659 C 8.217 12.823,9.088 12.805,9.364 12.622 C 9.729 12.381,9.788 12.001,9.544 11.469 C 9.220 10.764,9.003 9.935,8.918 9.080 C 8.756 7.459,9.329 5.495,10.451 3.823 C 10.628 3.559,10.638 3.550,10.674 3.643 C 10.932 4.317,11.579 5.452,12.156 6.240 C 12.896 7.253,13.989 8.386,15.140 9.338 C 15.536 9.665,16.022 10.089,16.220 10.280 C 16.418 10.472,16.625 10.652,16.680 10.681 C 16.735 10.710,16.882 10.733,17.008 10.733 C 17.279 10.733,17.497 10.611,17.642 10.377 C 17.766 10.176,17.769 9.828,17.648 9.633 C 17.517 9.421,16.853 8.798,16.120 8.201 C 14.786 7.112,13.683 5.904,12.893 4.664 C 12.380 3.859,11.792 2.525,11.701 1.960 C 11.660 1.706,11.515 1.474,11.334 1.374 C 11.184 1.292,10.941 1.233,10.860 1.260 M17.158 12.281 C 16.305 12.381,15.478 12.975,15.086 13.769 C 14.877 14.192,14.807 14.497,14.775 15.125 L 14.748 15.630 14.584 15.710 C 14.127 15.932,13.639 16.515,13.481 17.027 C 13.189 17.972,13.191 20.260,13.484 21.134 C 13.603 21.486,13.798 21.787,14.088 22.064 C 14.601 22.556,14.933 22.673,15.940 22.722 C 16.336 22.742,17.038 22.757,17.500 22.757 C 17.962 22.757,18.664 22.742,19.060 22.722 C 20.067 22.673,20.399 22.556,20.912 22.064 C 21.202 21.787,21.397 21.486,21.516 21.134 C 21.809 20.260,21.811 17.972,21.519 17.027 C 21.361 16.515,20.873 15.932,20.416 15.710 L 20.252 15.630 20.225 15.125 C 20.193 14.498,20.123 14.192,19.915 13.771 C 19.651 13.236,19.099 12.702,18.578 12.479 C 18.164 12.302,17.625 12.226,17.158 12.281 M17.894 13.824 C 18.002 13.861,18.175 13.973,18.296 14.083 C 18.582 14.344,18.686 14.589,18.711 15.060 L 18.730 15.420 17.500 15.420 L 16.270 15.420 16.289 15.060 C 16.314 14.589,16.418 14.345,16.705 14.083 C 16.822 13.975,16.995 13.860,17.089 13.827 C 17.317 13.746,17.662 13.745,17.894 13.824 M19.741 17.060 C 20.090 17.276,20.183 17.605,20.228 18.780 C 20.250 19.366,20.199 20.168,20.114 20.568 C 20.065 20.801,19.819 21.093,19.609 21.167 C 19.493 21.208,19.021 21.220,17.500 21.220 C 15.979 21.220,15.507 21.208,15.391 21.167 C 15.170 21.089,14.934 20.800,14.883 20.547 C 14.698 19.618,14.742 17.831,14.961 17.377 C 15.077 17.139,15.303 16.988,15.597 16.954 C 15.720 16.940,16.658 16.931,17.683 16.934 L 19.546 16.940 19.741 17.060 " fill="#141b34" stroke="none" fill-rule="evenodd"></path></svg>