<svg fill="none" height="24" viewBox="0 0 24 24" width="24" xmlns="http://www.w3.org/2000/svg"><path d="M12.611 1.282 C 12.369 1.330,12.092 1.461,11.903 1.615 C 11.648 1.824,4.651 10.819,4.470 11.169 C 4.192 11.710,4.189 12.267,4.461 12.826 C 4.635 13.183,4.974 13.512,5.309 13.647 C 5.538 13.739,5.554 13.740,7.440 13.751 C 9.159 13.761,9.345 13.768,9.390 13.829 C 9.429 13.881,9.440 14.664,9.441 17.418 C 9.442 19.444,9.459 21.067,9.481 21.238 C 9.658 22.597,11.207 23.219,12.168 22.316 C 12.478 22.025,19.436 13.055,19.565 12.780 C 19.899 12.069,19.732 11.196,19.161 10.668 C 19.016 10.533,18.832 10.410,18.691 10.353 C 18.462 10.261,18.446 10.260,16.560 10.249 C 14.841 10.239,14.655 10.232,14.610 10.171 C 14.571 10.119,14.560 9.336,14.559 6.582 C 14.558 4.575,14.541 2.933,14.519 2.764 C 14.411 1.935,13.815 1.340,13.020 1.269 C 12.888 1.258,12.704 1.263,12.611 1.282 M12.999 2.837 C 13.026 2.889,13.040 4.090,13.041 6.447 C 13.041 8.561,13.058 10.092,13.081 10.260 C 13.160 10.817,13.537 11.345,14.026 11.585 L 14.260 11.700 16.178 11.711 C 18.319 11.724,18.240 11.713,18.240 11.996 C 18.239 12.126,17.888 12.591,14.719 16.660 C 12.783 19.146,11.171 21.198,11.137 21.220 C 11.091 21.250,11.061 21.240,11.018 21.182 C 10.968 21.116,10.960 20.584,10.959 17.562 C 10.959 15.442,10.943 13.908,10.919 13.740 C 10.840 13.183,10.463 12.655,9.974 12.415 L 9.740 12.300 7.822 12.289 C 5.662 12.276,5.745 12.288,5.768 11.990 C 5.779 11.854,6.188 11.313,9.315 7.298 C 11.260 4.802,12.875 2.760,12.904 2.760 C 12.933 2.760,12.976 2.795,12.999 2.837 " stroke="none" fill-rule="evenodd" fill="black"></path></svg>