<svg fill="none" height="24" viewBox="0 0 24 24" width="24" xmlns="http://www.w3.org/2000/svg"><path d="M11.580 1.280 C 10.409 1.412,9.533 1.882,6.800 3.839 C 2.725 6.758,2.154 7.255,1.634 8.340 C 1.375 8.881,1.313 9.193,1.291 10.060 C 1.268 10.972,1.314 11.370,1.803 14.560 C 2.390 18.379,2.576 19.233,3.038 20.210 C 3.180 20.510,3.330 20.649,3.588 20.717 C 4.073 20.846,4.593 20.380,4.502 19.896 C 4.488 19.824,4.424 19.649,4.360 19.506 C 3.995 18.702,3.808 17.788,3.221 13.960 C 2.672 10.371,2.640 9.702,2.984 8.975 C 3.118 8.693,3.474 8.245,3.803 7.946 C 4.382 7.419,8.375 4.505,9.662 3.670 C 10.909 2.861,11.749 2.620,12.587 2.832 C 13.471 3.055,14.014 3.389,17.020 5.555 C 20.229 7.867,20.802 8.371,21.075 9.125 C 21.348 9.876,21.310 10.496,20.778 13.960 C 20.178 17.871,19.988 18.773,19.597 19.580 C 19.161 20.477,18.515 20.895,17.240 21.104 C 16.566 21.214,15.259 21.246,12.040 21.230 C 8.611 21.213,8.689 21.218,8.136 20.997 C 7.702 20.824,7.441 20.381,7.440 19.816 C 7.440 19.325,7.707 18.792,8.309 18.083 L 8.426 17.947 8.639 18.116 C 9.150 18.519,10.078 18.839,10.958 18.915 C 11.949 19.000,13.034 18.781,14.100 18.281 C 16.051 17.366,17.418 15.515,17.866 13.180 C 17.916 12.916,17.935 12.616,17.934 12.060 C 17.934 11.393,17.921 11.238,17.828 10.796 C 17.376 8.643,16.053 7.096,14.140 6.481 C 13.763 6.360,13.727 6.356,13.520 6.401 C 13.132 6.487,12.877 6.854,12.943 7.231 C 12.957 7.313,13.040 7.491,13.127 7.627 C 13.567 8.313,13.538 8.672,13.001 9.200 C 12.666 9.530,12.345 9.698,11.240 10.119 C 9.198 10.898,8.434 11.440,7.771 12.581 C 7.331 13.336,7.148 14.013,7.148 14.880 C 7.148 15.519,7.226 15.973,7.420 16.456 L 7.524 16.717 7.207 17.077 C 6.444 17.942,6.061 18.676,5.954 19.479 C 5.840 20.330,6.129 21.205,6.720 21.803 C 7.327 22.417,7.994 22.641,9.460 22.725 C 10.413 22.779,15.724 22.746,16.560 22.680 C 18.927 22.495,20.154 21.813,20.938 20.246 C 21.423 19.276,21.599 18.474,22.237 14.300 C 22.686 11.370,22.732 10.958,22.708 10.060 C 22.685 9.192,22.622 8.876,22.366 8.340 C 21.906 7.381,21.327 6.834,18.880 5.053 C 15.402 2.522,14.532 1.952,13.560 1.569 C 12.945 1.326,12.171 1.213,11.580 1.280 M15.299 8.929 C 15.942 9.639,16.332 10.561,16.441 11.629 C 16.621 13.378,15.671 15.469,14.240 16.476 C 13.639 16.899,12.822 17.238,12.054 17.383 C 11.600 17.468,10.914 17.443,10.460 17.323 C 10.127 17.235,9.558 16.988,9.562 16.932 C 9.565 16.890,9.756 16.741,11.180 15.672 C 12.510 14.674,13.055 14.214,13.189 13.978 C 13.389 13.625,13.261 13.156,12.910 12.959 C 12.782 12.887,12.707 12.874,12.498 12.887 C 12.287 12.901,12.219 12.924,12.105 13.022 C 11.383 13.639,11.090 13.873,10.220 14.522 C 9.670 14.932,9.113 15.352,8.982 15.455 C 8.766 15.624,8.740 15.635,8.702 15.571 C 8.678 15.530,8.660 15.255,8.661 14.920 C 8.661 14.255,8.700 14.082,8.987 13.492 C 9.112 13.233,9.244 13.039,9.431 12.837 C 9.946 12.280,10.334 12.063,11.780 11.519 C 13.029 11.050,13.603 10.730,14.101 10.225 C 14.558 9.761,14.920 9.094,14.920 8.715 C 14.920 8.612,14.929 8.602,14.996 8.638 C 15.038 8.660,15.174 8.791,15.299 8.929 " stroke="none" fill-rule="evenodd" fill="black"></path></svg>