<svg fill="none" height="24" viewBox="0 0 24 24" width="24" xmlns="http://www.w3.org/2000/svg"><path d="M11.580 1.280 C 10.409 1.412,9.533 1.882,6.800 3.839 C 2.725 6.758,2.154 7.255,1.634 8.340 C 1.375 8.881,1.313 9.193,1.291 10.060 C 1.269 10.958,1.315 11.377,1.763 14.300 C 2.401 18.474,2.577 19.276,3.062 20.246 C 3.856 21.831,5.061 22.492,7.520 22.688 C 8.387 22.757,15.613 22.757,16.480 22.688 C 18.939 22.492,20.144 21.831,20.938 20.246 C 21.423 19.276,21.599 18.474,22.237 14.300 C 22.686 11.370,22.732 10.958,22.708 10.060 C 22.685 9.192,22.622 8.876,22.366 8.340 C 21.927 7.423,21.315 6.831,19.240 5.314 C 15.652 2.690,14.535 1.954,13.560 1.569 C 12.945 1.326,12.171 1.213,11.580 1.280 M12.611 2.838 C 13.474 3.058,14.034 3.403,17.020 5.555 C 20.229 7.867,20.802 8.371,21.075 9.125 C 21.348 9.876,21.310 10.496,20.778 13.960 C 20.178 17.871,19.988 18.773,19.597 19.580 C 19.226 20.344,18.679 20.770,17.780 20.994 C 16.927 21.207,16.182 21.238,12.000 21.238 C 7.818 21.238,7.073 21.207,6.220 20.994 C 4.878 20.659,4.293 19.889,3.886 17.917 C 3.658 16.816,3.071 13.120,2.861 11.469 C 2.700 10.207,2.735 9.501,2.984 8.975 C 3.118 8.693,3.474 8.245,3.803 7.946 C 4.383 7.418,8.387 4.496,9.661 3.671 C 10.934 2.846,11.746 2.617,12.611 2.838 M8.792 16.278 C 8.625 16.331,8.455 16.467,8.356 16.626 C 8.224 16.839,8.231 17.182,8.371 17.394 C 8.485 17.566,9.036 17.957,9.478 18.178 C 10.328 18.605,11.427 18.802,12.484 18.716 C 13.542 18.631,14.302 18.370,15.154 17.799 C 15.617 17.490,15.733 17.330,15.733 17.003 C 15.733 16.566,15.425 16.258,14.994 16.264 C 14.780 16.267,14.734 16.286,14.430 16.489 C 13.633 17.023,12.930 17.240,12.000 17.240 C 11.077 17.240,10.373 17.024,9.580 16.498 C 9.244 16.274,9.010 16.209,8.792 16.278 " stroke="none" fill-rule="evenodd" fill="black"></path></svg>