<svg fill="none" height="24" viewBox="0 0 24 24" width="24" xmlns="http://www.w3.org/2000/svg"><path d="M8.200 1.785 C 6.689 1.900,6.277 1.951,5.680 2.100 C 4.675 2.350,3.920 2.751,3.315 3.355 C 2.368 4.303,1.898 5.670,1.776 7.832 C 1.744 8.395,1.779 8.535,2.000 8.735 C 2.322 9.026,2.749 9.009,3.047 8.694 C 3.197 8.536,3.226 8.438,3.257 7.980 C 3.427 5.505,3.946 4.423,5.255 3.818 C 5.950 3.497,6.971 3.331,8.700 3.257 C 9.412 3.226,9.577 3.173,9.743 2.923 C 9.974 2.573,9.891 2.115,9.557 1.893 C 9.394 1.785,9.365 1.780,8.883 1.775 C 8.606 1.773,8.299 1.777,8.200 1.785 M14.601 1.801 C 14.145 1.998,13.987 2.515,14.258 2.924 C 14.423 3.173,14.590 3.227,15.300 3.257 C 17.908 3.369,19.055 3.710,19.780 4.588 C 20.353 5.284,20.623 6.233,20.742 7.979 C 20.773 8.434,20.802 8.535,20.953 8.694 C 21.251 9.009,21.678 9.026,22.000 8.735 C 22.222 8.534,22.256 8.397,22.223 7.823 C 22.166 6.849,22.016 5.908,21.816 5.274 C 21.361 3.834,20.379 2.798,19.000 2.302 C 18.132 1.990,17.001 1.825,15.420 1.780 C 14.953 1.766,14.665 1.774,14.601 1.801 M11.611 6.281 C 10.346 6.414,9.272 7.324,8.874 8.600 C 8.793 8.859,8.780 8.983,8.780 9.500 C 8.780 10.017,8.793 10.141,8.874 10.400 C 9.222 11.516,10.091 12.361,11.180 12.643 C 11.627 12.759,12.373 12.759,12.820 12.643 C 13.909 12.361,14.778 11.516,15.126 10.400 C 15.207 10.141,15.220 10.017,15.220 9.500 C 15.220 8.983,15.207 8.859,15.126 8.600 C 14.641 7.047,13.223 6.112,11.611 6.281 M12.577 7.854 C 13.895 8.333,14.155 10.046,13.038 10.898 C 12.165 11.563,10.878 11.231,10.415 10.220 C 9.994 9.300,10.453 8.213,11.412 7.856 C 11.761 7.727,12.222 7.726,12.577 7.854 M11.480 14.282 C 10.509 14.368,9.607 14.687,8.760 15.242 C 8.329 15.523,7.657 16.170,7.419 16.532 C 7.286 16.733,7.267 16.793,7.267 16.996 C 7.267 17.282,7.356 17.451,7.595 17.619 C 7.738 17.720,7.802 17.739,7.993 17.736 C 8.300 17.732,8.431 17.654,8.716 17.304 C 9.354 16.524,10.158 16.047,11.200 15.832 C 11.711 15.727,12.621 15.749,13.100 15.879 C 14.018 16.129,14.732 16.592,15.276 17.291 C 15.516 17.600,15.611 17.673,15.842 17.725 C 16.036 17.768,16.248 17.721,16.442 17.590 C 16.644 17.454,16.733 17.271,16.733 16.994 C 16.733 16.778,16.717 16.735,16.537 16.471 C 15.952 15.614,14.811 14.811,13.741 14.501 C 13.028 14.295,12.213 14.216,11.480 14.282 M2.265 15.098 C 2.066 15.170,1.854 15.376,1.795 15.555 C 1.714 15.802,1.827 17.148,2.002 18.011 C 2.400 19.968,3.482 21.226,5.240 21.778 C 6.100 22.048,7.345 22.205,8.702 22.215 L 9.384 22.220 9.556 22.107 C 9.891 21.886,9.975 21.427,9.743 21.077 C 9.577 20.826,9.411 20.773,8.700 20.742 C 6.086 20.630,4.946 20.291,4.220 19.412 C 3.647 18.717,3.377 17.765,3.257 16.020 C 3.226 15.562,3.197 15.464,3.047 15.306 C 2.837 15.084,2.530 15.002,2.265 15.098 M21.420 15.058 C 21.398 15.066,21.331 15.084,21.271 15.097 C 21.127 15.129,20.881 15.347,20.818 15.499 C 20.791 15.566,20.756 15.800,20.741 16.020 C 20.575 18.491,20.055 19.576,18.745 20.182 C 18.049 20.503,17.039 20.667,15.300 20.742 C 14.589 20.773,14.423 20.826,14.257 21.077 C 14.025 21.427,14.109 21.886,14.444 22.107 L 14.616 22.220 15.358 22.212 C 17.298 22.193,18.784 21.904,19.729 21.364 C 21.078 20.592,21.820 19.365,22.096 17.448 C 22.187 16.817,22.258 15.809,22.224 15.629 C 22.193 15.464,22.008 15.227,21.843 15.141 C 21.729 15.083,21.485 15.035,21.420 15.058 " stroke="none" fill-rule="evenodd" fill="black"></path></svg>