<svg fill="none" height="24" viewBox="0 0 24 24" width="24" xmlns="http://www.w3.org/2000/svg"><path d="M7.680 1.280 C 5.535 1.343,4.459 1.526,3.549 1.985 C 2.813 2.356,2.195 2.974,1.825 3.709 C 1.249 4.856,1.149 6.277,1.382 10.020 C 1.696 15.066,1.704 15.151,1.908 15.780 C 2.418 17.353,3.713 18.543,5.384 18.976 C 5.692 19.056,6.560 19.119,7.346 19.120 C 7.882 19.120,7.962 19.129,8.046 19.196 L 8.140 19.273 8.161 20.526 L 8.182 21.780 8.297 22.030 C 8.423 22.307,8.667 22.560,8.907 22.662 C 9.126 22.755,9.568 22.748,9.830 22.648 C 10.123 22.536,10.504 22.296,13.077 20.604 L 15.334 19.120 16.157 19.119 C 18.131 19.117,18.941 18.983,19.794 18.515 C 20.517 18.119,21.128 17.558,21.552 16.900 C 22.016 16.180,22.213 15.549,22.318 14.440 C 22.410 13.470,22.663 9.431,22.719 8.036 C 22.836 5.120,22.487 3.702,21.393 2.657 C 20.525 1.827,19.456 1.471,17.380 1.318 C 16.640 1.264,9.228 1.235,7.680 1.280 M17.860 2.852 C 19.174 3.014,19.812 3.236,20.323 3.709 C 20.751 4.104,20.972 4.536,21.127 5.280 C 21.231 5.781,21.269 7.409,21.204 8.607 C 21.139 9.793,20.928 13.152,20.878 13.780 C 20.765 15.206,20.614 15.704,20.100 16.350 C 19.661 16.901,18.927 17.366,18.280 17.502 C 17.968 17.568,16.701 17.635,15.680 17.639 C 15.186 17.642,15.061 17.655,14.840 17.732 C 14.648 17.799,13.944 18.240,12.133 19.431 C 10.788 20.316,9.678 21.040,9.667 21.040 C 9.657 21.040,9.641 20.586,9.632 20.030 C 9.617 19.108,9.608 19.001,9.528 18.801 C 9.323 18.287,8.936 17.905,8.452 17.741 C 8.206 17.658,8.080 17.646,7.140 17.622 C 6.034 17.594,5.757 17.556,5.280 17.368 C 4.405 17.022,3.696 16.294,3.365 15.400 C 3.191 14.931,3.177 14.796,2.954 11.340 C 2.811 9.138,2.787 8.570,2.784 7.280 C 2.781 5.971,2.790 5.729,2.855 5.380 C 3.004 4.584,3.231 4.124,3.677 3.711 C 4.301 3.134,5.183 2.896,7.120 2.785 C 7.241 2.778,9.590 2.776,12.340 2.780 C 16.648 2.787,17.412 2.797,17.860 2.852 M12.785 6.288 C 12.699 6.311,12.562 6.398,12.479 6.481 C 12.336 6.624,12.280 6.779,11.285 9.767 C 10.710 11.492,10.240 12.936,10.240 12.977 C 10.240 13.146,10.347 13.387,10.483 13.523 C 10.773 13.813,11.228 13.812,11.521 13.519 C 11.662 13.378,11.724 13.208,12.720 10.219 L 13.771 7.067 13.724 6.866 C 13.621 6.418,13.218 6.170,12.785 6.288 M7.807 7.279 C 7.650 7.317,7.558 7.388,6.620 8.203 C 5.744 8.964,5.507 9.212,5.372 9.506 C 5.153 9.984,5.265 10.496,5.688 10.946 C 5.933 11.207,7.386 12.480,7.612 12.631 C 7.732 12.712,7.814 12.733,7.997 12.733 C 8.279 12.733,8.474 12.627,8.632 12.389 C 8.770 12.180,8.778 11.839,8.648 11.634 C 8.602 11.560,8.190 11.175,7.732 10.779 C 7.274 10.382,6.900 10.032,6.900 10.000 C 6.900 9.968,7.274 9.618,7.732 9.221 C 8.190 8.825,8.602 8.440,8.648 8.366 C 8.771 8.171,8.769 7.829,8.645 7.627 C 8.471 7.347,8.123 7.202,7.807 7.279 M15.815 7.277 C 15.638 7.321,15.461 7.456,15.353 7.631 C 15.231 7.829,15.230 8.173,15.352 8.366 C 15.398 8.440,15.810 8.825,16.268 9.221 C 16.726 9.618,17.100 9.968,17.100 10.000 C 17.100 10.032,16.726 10.382,16.268 10.779 C 15.810 11.175,15.398 11.560,15.352 11.634 C 15.222 11.839,15.230 12.180,15.368 12.389 C 15.526 12.627,15.721 12.733,16.003 12.733 C 16.186 12.733,16.268 12.712,16.388 12.631 C 16.614 12.480,18.067 11.207,18.312 10.946 C 18.878 10.343,18.878 9.657,18.312 9.054 C 18.068 8.794,16.609 7.516,16.400 7.379 C 16.240 7.274,15.998 7.232,15.815 7.277 " stroke="none" fill-rule="evenodd" fill="black"></path></svg>