<svg fill="none" height="24" viewBox="0 0 24 24" width="24" xmlns="http://www.w3.org/2000/svg"><path d="M11.500 1.266 C 7.111 1.473,3.270 4.350,1.842 8.499 C 1.433 9.685,1.270 10.686,1.270 12.000 C 1.270 13.314,1.433 14.315,1.842 15.501 C 2.984 18.819,5.671 21.359,9.077 22.339 C 10.212 22.666,11.752 22.822,12.864 22.724 C 13.449 22.672,13.791 22.572,14.081 22.370 C 14.518 22.064,14.731 21.610,14.729 20.985 C 14.727 20.356,14.565 19.923,14.020 19.083 C 13.640 18.498,13.511 18.208,13.514 17.949 C 13.519 17.566,13.706 17.176,14.032 16.871 C 14.445 16.485,14.683 16.445,16.800 16.400 C 19.558 16.342,20.461 16.190,21.288 15.643 C 22.201 15.039,22.615 14.162,22.717 12.616 C 22.798 11.393,22.650 10.098,22.296 8.929 C 21.718 7.018,20.726 5.442,19.230 4.057 C 17.612 2.558,15.400 1.556,13.200 1.324 C 12.749 1.277,11.892 1.247,11.500 1.266 M13.560 2.880 C 15.095 3.151,16.587 3.822,17.780 4.778 C 18.162 5.084,18.872 5.792,19.187 6.180 C 19.998 7.180,20.649 8.474,20.960 9.706 C 21.180 10.577,21.220 10.931,21.219 12.000 C 21.219 12.884,21.210 13.015,21.129 13.336 C 21.020 13.767,20.881 14.032,20.656 14.239 C 20.121 14.733,19.355 14.861,16.580 14.921 C 14.551 14.965,14.250 15.008,13.600 15.345 C 13.039 15.636,12.636 16.063,12.322 16.700 C 12.090 17.172,12.023 17.462,12.025 17.980 C 12.029 18.622,12.172 18.988,12.793 19.940 C 13.111 20.427,13.238 20.720,13.239 20.968 C 13.240 21.157,13.240 21.157,13.070 21.203 C 12.787 21.280,11.043 21.228,10.480 21.127 C 8.859 20.835,7.399 20.176,6.180 19.187 C 5.792 18.872,5.084 18.162,4.778 17.780 C 3.818 16.582,3.154 15.104,2.875 13.540 C 2.793 13.085,2.782 12.892,2.782 12.000 C 2.782 11.108,2.793 10.915,2.875 10.460 C 3.158 8.874,3.824 7.403,4.812 6.180 C 5.124 5.794,5.836 5.085,6.220 4.778 C 7.424 3.815,8.948 3.132,10.440 2.885 C 11.148 2.768,11.163 2.767,12.160 2.780 C 12.872 2.789,13.164 2.810,13.560 2.880 M9.123 6.283 C 8.959 6.305,8.745 6.375,8.529 6.479 C 7.408 7.016,6.941 8.349,7.480 9.474 C 8.146 10.864,9.991 11.176,11.084 10.084 C 12.175 8.992,11.868 7.163,10.480 6.488 C 10.233 6.368,10.054 6.311,9.827 6.281 C 9.483 6.236,9.490 6.236,9.123 6.283 M16.123 7.283 C 15.959 7.305,15.745 7.375,15.529 7.479 C 14.408 8.016,13.941 9.349,14.480 10.474 C 15.146 11.864,16.991 12.176,18.084 11.084 C 19.175 9.992,18.868 8.163,17.480 7.488 C 17.233 7.368,17.054 7.311,16.827 7.281 C 16.483 7.236,16.490 7.236,16.123 7.283 M9.812 7.825 C 10.089 7.965,10.240 8.203,10.240 8.500 C 10.240 8.950,9.893 9.265,9.434 9.232 C 9.168 9.213,8.964 9.080,8.832 8.839 C 8.712 8.623,8.746 8.249,8.903 8.056 C 8.968 7.975,9.084 7.875,9.160 7.834 C 9.332 7.742,9.640 7.738,9.812 7.825 M16.812 8.825 C 17.089 8.965,17.240 9.203,17.240 9.500 C 17.240 9.950,16.893 10.265,16.434 10.232 C 16.168 10.213,15.964 10.080,15.832 9.839 C 15.712 9.623,15.746 9.249,15.903 9.056 C 15.968 8.975,16.084 8.875,16.160 8.834 C 16.332 8.742,16.640 8.738,16.812 8.825 M6.731 14.045 C 6.414 14.136,6.197 14.341,6.067 14.671 C 5.822 15.295,6.328 16.000,7.020 16.000 C 7.374 16.000,7.734 15.763,7.903 15.418 C 8.164 14.884,7.875 14.229,7.303 14.059 C 7.082 13.993,6.923 13.989,6.731 14.045 " stroke="none" fill-rule="evenodd" fill="black"></path></svg>