<svg fill="none" height="24" viewBox="0 0 24 24" width="24" xmlns="http://www.w3.org/2000/svg"><path d="M8.194 3.804 C 6.749 3.915,5.844 4.386,4.905 5.514 C 4.436 6.079,2.872 8.313,2.200 9.380 C 0.942 11.378,0.942 12.622,2.200 14.620 C 2.872 15.687,4.436 17.921,4.905 18.486 C 5.868 19.642,6.732 20.081,8.281 20.199 C 8.979 20.252,16.644 20.253,17.660 20.200 C 19.522 20.102,20.455 19.741,21.365 18.766 C 22.216 17.855,22.559 16.941,22.685 15.248 C 22.748 14.406,22.748 9.594,22.685 8.752 C 22.559 7.059,22.216 6.145,21.365 5.234 C 20.453 4.257,19.525 3.898,17.660 3.800 C 16.761 3.753,8.812 3.757,8.194 3.804 M18.120 5.316 C 18.682 5.377,19.156 5.497,19.520 5.670 C 19.758 5.783,19.893 5.887,20.180 6.176 C 20.712 6.714,20.914 7.105,21.077 7.909 C 21.203 8.529,21.240 9.451,21.240 12.000 C 21.240 14.549,21.203 15.471,21.077 16.091 C 20.916 16.885,20.713 17.282,20.200 17.803 C 19.824 18.185,19.616 18.322,19.199 18.463 C 18.441 18.720,17.591 18.759,12.800 18.758 C 8.941 18.758,8.155 18.733,7.604 18.597 C 6.708 18.375,6.265 17.925,4.671 15.620 C 3.473 13.887,3.093 13.268,2.891 12.715 C 2.798 12.464,2.782 12.357,2.782 12.000 C 2.782 11.643,2.798 11.536,2.891 11.285 C 3.093 10.732,3.473 10.113,4.671 8.380 C 5.937 6.550,6.497 5.891,7.024 5.613 C 7.353 5.439,7.879 5.318,8.474 5.281 C 9.257 5.231,17.617 5.261,18.120 5.316 M8.673 11.061 C 8.308 11.178,8.000 11.608,8.000 12.000 C 8.000 12.415,8.310 12.828,8.710 12.944 C 9.209 13.090,9.693 12.878,9.905 12.422 C 10.137 11.924,9.933 11.355,9.429 11.094 C 9.256 11.005,8.896 10.989,8.673 11.061 M12.673 11.061 C 12.308 11.178,12.000 11.608,12.000 12.000 C 12.000 12.415,12.310 12.828,12.710 12.944 C 13.209 13.090,13.693 12.878,13.905 12.422 C 14.137 11.924,13.933 11.355,13.429 11.094 C 13.256 11.005,12.896 10.989,12.673 11.061 M16.673 11.061 C 16.308 11.178,16.000 11.608,16.000 12.000 C 16.000 12.415,16.310 12.828,16.710 12.944 C 17.209 13.090,17.693 12.878,17.905 12.422 C 18.137 11.924,17.933 11.355,17.429 11.094 C 17.256 11.005,16.896 10.989,16.673 11.061 " stroke="none" fill-rule="evenodd" fill="black"></path></svg>