<svg fill="none" height="24" viewBox="0 0 24 24" width="24" xmlns="http://www.w3.org/2000/svg"><path d="M8.310 1.802 C 5.722 1.924,4.366 2.358,3.354 3.389 C 2.321 4.441,1.930 5.704,1.801 8.400 C 1.748 9.513,1.748 14.487,1.801 15.600 C 1.930 18.296,2.321 19.559,3.354 20.611 C 4.384 21.660,5.686 22.070,8.400 22.199 C 9.513 22.252,14.487 22.252,15.600 22.199 C 18.314 22.070,19.616 21.660,20.646 20.611 C 21.679 19.559,22.070 18.296,22.199 15.600 C 22.252 14.487,22.252 9.513,22.199 8.400 C 22.070 5.686,21.660 4.384,20.611 3.354 C 19.559 2.321,18.296 1.930,15.600 1.801 C 14.638 1.756,9.287 1.756,8.310 1.802 M15.220 3.280 C 17.789 3.381,18.841 3.666,19.607 4.470 C 20.561 5.470,20.759 6.763,20.759 12.000 C 20.759 17.318,20.562 18.561,19.561 19.561 C 18.561 20.562,17.318 20.759,12.000 20.759 C 7.287 20.759,5.883 20.597,4.879 19.937 C 3.969 19.339,3.545 18.412,3.360 16.620 C 3.199 15.059,3.199 8.936,3.360 7.380 C 3.518 5.847,3.833 5.001,4.470 4.393 C 5.239 3.659,6.330 3.369,8.637 3.282 C 9.832 3.237,14.094 3.236,15.220 3.280 M7.805 11.280 C 7.424 11.371,7.187 11.775,7.279 12.177 C 7.350 12.487,7.597 12.700,7.932 12.740 C 8.046 12.753,9.958 12.759,12.180 12.752 C 15.850 12.741,16.231 12.734,16.340 12.674 C 16.605 12.528,16.733 12.307,16.733 12.000 C 16.733 11.693,16.605 11.472,16.340 11.326 C 16.231 11.266,15.850 11.259,12.080 11.254 C 9.803 11.250,7.879 11.262,7.805 11.280 " stroke="none" fill-rule="evenodd" fill="black"></path></svg>