<svg fill="none" height="24" viewBox="0 0 24 24" width="24" xmlns="http://www.w3.org/2000/svg"><path d="M11.480 1.283 C 10.991 1.316,10.626 1.373,10.180 1.484 C 9.182 1.732,8.493 2.037,6.480 3.119 C 5.465 3.665,5.023 3.860,4.079 4.179 C 3.672 4.317,3.224 4.487,3.084 4.558 C 2.602 4.801,2.319 5.161,2.180 5.708 C 1.953 6.605,1.701 8.772,1.777 9.177 C 1.808 9.344,1.996 9.575,2.175 9.668 C 2.333 9.750,2.667 9.750,2.825 9.668 C 3.000 9.577,3.192 9.344,3.218 9.191 C 3.230 9.119,3.258 8.799,3.282 8.480 C 3.363 7.361,3.590 6.025,3.718 5.916 C 3.760 5.881,4.181 5.722,4.653 5.563 C 5.655 5.227,6.159 5.002,7.270 4.398 C 9.648 3.103,10.634 2.763,12.006 2.761 C 13.066 2.759,14.040 3.027,15.343 3.678 C 15.781 3.897,16.509 4.275,16.960 4.518 C 17.986 5.071,18.373 5.240,19.393 5.580 C 19.840 5.730,20.240 5.881,20.281 5.916 C 20.410 6.025,20.637 7.360,20.718 8.480 C 20.742 8.799,20.770 9.119,20.782 9.191 C 20.808 9.344,21.000 9.577,21.175 9.668 C 21.333 9.750,21.667 9.750,21.825 9.668 C 22.004 9.575,22.192 9.344,22.223 9.177 C 22.299 8.772,22.047 6.605,21.820 5.708 C 21.681 5.163,21.398 4.801,20.919 4.559 C 20.781 4.490,20.298 4.307,19.846 4.153 C 18.927 3.841,18.362 3.583,17.107 2.903 C 15.603 2.089,14.814 1.744,13.942 1.519 C 13.123 1.308,12.285 1.227,11.480 1.283 M3.420 11.260 C 3.398 11.267,3.331 11.284,3.271 11.297 C 3.124 11.329,2.881 11.548,2.814 11.708 C 2.744 11.875,2.745 12.127,2.816 12.296 C 2.846 12.369,2.993 12.558,3.141 12.715 L 3.410 13.000 3.141 13.285 C 2.993 13.442,2.846 13.631,2.816 13.704 C 2.609 14.198,2.964 14.731,3.500 14.731 C 3.758 14.731,3.900 14.656,4.231 14.342 L 4.499 14.088 4.769 14.343 C 5.102 14.657,5.242 14.731,5.500 14.731 C 5.921 14.731,6.240 14.415,6.240 13.996 C 6.240 13.757,6.155 13.599,5.859 13.285 L 5.590 13.000 5.859 12.715 C 6.007 12.558,6.154 12.369,6.184 12.296 C 6.391 11.802,6.036 11.269,5.500 11.269 C 5.242 11.269,5.102 11.343,4.769 11.657 L 4.499 11.912 4.231 11.658 C 4.084 11.518,3.913 11.378,3.852 11.347 C 3.734 11.287,3.487 11.237,3.420 11.260 M8.420 11.260 C 8.398 11.267,8.331 11.284,8.271 11.297 C 8.124 11.329,7.881 11.548,7.814 11.708 C 7.744 11.875,7.745 12.127,7.816 12.296 C 7.846 12.369,7.993 12.558,8.141 12.715 L 8.410 13.000 8.141 13.285 C 7.993 13.442,7.846 13.631,7.816 13.704 C 7.609 14.198,7.964 14.731,8.500 14.731 C 8.758 14.731,8.900 14.656,9.231 14.342 L 9.499 14.088 9.769 14.343 C 10.102 14.657,10.242 14.731,10.500 14.731 C 10.921 14.731,11.240 14.415,11.240 13.996 C 11.240 13.757,11.155 13.599,10.859 13.285 L 10.590 13.000 10.859 12.715 C 11.007 12.558,11.154 12.369,11.184 12.296 C 11.391 11.802,11.036 11.269,10.500 11.269 C 10.242 11.269,10.102 11.343,9.769 11.657 L 9.499 11.912 9.231 11.658 C 9.084 11.518,8.913 11.378,8.852 11.347 C 8.734 11.287,8.487 11.237,8.420 11.260 M13.420 11.260 C 13.398 11.267,13.331 11.284,13.271 11.297 C 13.124 11.329,12.881 11.548,12.814 11.708 C 12.744 11.875,12.745 12.127,12.816 12.296 C 12.846 12.369,12.993 12.558,13.141 12.715 L 13.410 13.000 13.141 13.285 C 12.993 13.442,12.846 13.631,12.816 13.704 C 12.609 14.198,12.964 14.731,13.500 14.731 C 13.758 14.731,13.900 14.656,14.231 14.342 L 14.499 14.088 14.769 14.343 C 15.102 14.657,15.242 14.731,15.500 14.731 C 15.921 14.731,16.240 14.415,16.240 13.996 C 16.240 13.757,16.155 13.599,15.859 13.285 L 15.590 13.000 15.859 12.715 C 16.007 12.558,16.154 12.369,16.184 12.296 C 16.391 11.802,16.036 11.269,15.500 11.269 C 15.242 11.269,15.102 11.343,14.769 11.657 L 14.499 11.912 14.231 11.658 C 14.084 11.518,13.913 11.378,13.852 11.347 C 13.734 11.287,13.487 11.237,13.420 11.260 M18.420 11.260 C 18.398 11.267,18.331 11.284,18.271 11.297 C 18.124 11.329,17.881 11.548,17.814 11.708 C 17.744 11.875,17.745 12.127,17.816 12.296 C 17.846 12.369,17.993 12.558,18.141 12.715 L 18.410 13.000 18.141 13.285 C 17.993 13.442,17.846 13.631,17.816 13.704 C 17.609 14.198,17.964 14.731,18.500 14.731 C 18.758 14.731,18.900 14.656,19.231 14.342 L 19.499 14.088 19.769 14.343 C 20.102 14.657,20.242 14.731,20.500 14.731 C 20.921 14.731,21.240 14.415,21.240 13.996 C 21.240 13.757,21.155 13.599,20.859 13.285 L 20.590 13.000 20.859 12.715 C 21.007 12.558,21.154 12.369,21.184 12.296 C 21.391 11.802,21.036 11.269,20.500 11.269 C 20.242 11.269,20.102 11.343,19.769 11.657 L 19.499 11.912 19.231 11.658 C 19.084 11.518,18.913 11.378,18.852 11.347 C 18.734 11.287,18.487 11.237,18.420 11.260 M4.314 16.302 C 3.980 16.406,3.761 16.772,3.821 17.127 C 3.904 17.617,5.436 19.413,6.480 20.245 C 7.446 21.015,8.571 21.679,9.700 22.146 C 10.807 22.605,11.293 22.727,12.000 22.727 C 12.591 22.727,12.986 22.649,13.668 22.395 C 16.193 21.457,18.126 20.046,19.610 18.060 C 20.184 17.291,20.251 17.139,20.162 16.808 C 20.031 16.321,19.444 16.106,19.015 16.387 C 18.964 16.421,18.793 16.631,18.634 16.854 C 17.716 18.152,16.672 19.130,15.338 19.941 C 14.767 20.288,14.337 20.504,13.633 20.794 C 12.644 21.202,12.572 21.220,11.980 21.218 C 11.494 21.216,11.437 21.207,11.100 21.084 C 9.407 20.462,8.215 19.775,7.060 18.756 C 6.395 18.170,5.934 17.651,5.369 16.854 C 5.211 16.630,5.023 16.412,4.951 16.368 C 4.768 16.257,4.535 16.233,4.314 16.302 " stroke="none" fill-rule="evenodd" fill="black"></path></svg>