<svg fill="none" height="24" viewBox="0 0 24 24" width="24" xmlns="http://www.w3.org/2000/svg"><path d="M11.480 1.283 C 10.085 1.378,9.035 1.746,6.977 2.861 C 5.678 3.565,5.063 3.847,4.149 4.157 C 2.969 4.559,2.654 4.737,2.419 5.138 C 2.220 5.477,2.080 6.067,1.923 7.220 C 1.242 12.227,2.684 16.758,5.902 19.724 C 7.095 20.823,8.449 21.654,10.104 22.303 C 10.964 22.641,11.347 22.726,12.000 22.726 C 12.653 22.726,13.036 22.641,13.896 22.303 C 15.435 21.700,16.711 20.942,17.824 19.971 C 21.270 16.967,22.790 12.344,22.058 7.100 C 21.861 5.689,21.689 5.156,21.329 4.838 C 21.059 4.600,20.791 4.477,19.851 4.157 C 18.937 3.847,18.322 3.565,17.023 2.861 C 15.565 2.071,14.811 1.743,13.942 1.519 C 13.123 1.308,12.285 1.227,11.480 1.283 M13.200 2.876 C 14.097 3.074,14.974 3.447,16.520 4.289 C 17.911 5.047,18.341 5.240,19.451 5.604 C 19.842 5.733,20.197 5.857,20.239 5.880 C 20.282 5.903,20.335 5.989,20.357 6.071 C 20.426 6.328,20.594 7.355,20.666 7.960 C 20.763 8.766,20.762 10.442,20.665 11.240 C 20.180 15.239,18.237 18.286,14.980 20.152 C 14.515 20.418,13.717 20.781,13.060 21.025 L 12.540 21.218 12.000 21.218 L 11.460 21.218 10.948 21.027 C 9.139 20.353,7.797 19.511,6.564 18.275 C 4.229 15.934,3.025 12.412,3.278 8.660 C 3.355 7.527,3.592 6.048,3.718 5.922 C 3.755 5.885,4.108 5.749,4.503 5.620 C 5.624 5.254,6.109 5.038,7.440 4.309 C 9.130 3.383,10.117 2.980,11.100 2.817 C 11.580 2.738,12.715 2.770,13.200 2.876 M11.680 6.279 C 10.646 6.422,9.828 7.131,9.581 8.098 C 9.538 8.267,9.520 8.540,9.520 9.028 L 9.520 9.719 9.209 9.876 C 8.538 10.213,8.066 10.782,7.858 11.503 C 7.769 11.810,7.726 13.964,7.798 14.504 C 7.915 15.380,8.415 16.101,9.166 16.478 C 9.662 16.726,9.809 16.740,12.000 16.740 C 14.191 16.740,14.338 16.726,14.834 16.478 C 15.586 16.101,16.085 15.380,16.202 14.501 C 16.274 13.963,16.230 11.813,16.142 11.503 C 15.937 10.789,15.458 10.211,14.793 9.877 L 14.480 9.719 14.480 9.028 C 14.480 8.266,14.440 8.027,14.241 7.620 C 13.799 6.712,12.701 6.137,11.680 6.279 M12.466 7.852 C 12.624 7.935,12.822 8.131,12.911 8.294 C 12.964 8.393,12.982 8.550,12.993 9.030 L 13.007 9.640 12.004 9.640 L 11.000 9.640 11.000 9.079 C 11.000 8.675,11.017 8.478,11.059 8.376 C 11.170 8.111,11.375 7.910,11.634 7.813 C 11.822 7.743,12.298 7.765,12.466 7.852 M13.923 11.161 C 14.177 11.209,14.397 11.351,14.531 11.553 C 14.730 11.855,14.740 11.937,14.740 13.220 L 14.740 14.420 14.628 14.649 C 14.492 14.925,14.258 15.136,14.020 15.196 C 13.779 15.257,10.221 15.257,9.980 15.196 C 9.742 15.136,9.508 14.925,9.372 14.649 L 9.260 14.420 9.260 13.220 C 9.260 12.291,9.273 11.984,9.316 11.860 C 9.448 11.486,9.718 11.227,10.044 11.163 C 10.297 11.114,13.662 11.111,13.923 11.161 " stroke="none" fill-rule="evenodd" fill="black"></path></svg>