<svg fill="none" height="24" viewBox="0 0 24 24" width="24" xmlns="http://www.w3.org/2000/svg"><path d="M8.310 1.802 C 5.722 1.924,4.366 2.358,3.354 3.389 C 2.321 4.441,1.930 5.704,1.801 8.400 C 1.748 9.513,1.748 14.487,1.801 15.600 C 1.930 18.296,2.321 19.559,3.354 20.611 C 4.384 21.660,5.686 22.070,8.400 22.199 C 9.513 22.252,14.487 22.252,15.600 22.199 C 18.314 22.070,19.616 21.660,20.646 20.611 C 21.679 19.559,22.070 18.296,22.199 15.600 C 22.252 14.487,22.252 9.513,22.199 8.400 C 22.070 5.686,21.660 4.384,20.611 3.354 C 19.559 2.321,18.296 1.930,15.600 1.801 C 14.638 1.756,9.287 1.756,8.310 1.802 M15.220 3.280 C 17.789 3.381,18.841 3.666,19.607 4.470 C 20.561 5.470,20.759 6.763,20.759 12.000 C 20.759 17.318,20.562 18.561,19.561 19.561 C 18.561 20.562,17.318 20.759,12.000 20.759 C 7.287 20.759,5.883 20.597,4.879 19.937 C 3.969 19.339,3.545 18.412,3.360 16.620 C 3.199 15.059,3.199 8.936,3.360 7.380 C 3.518 5.847,3.833 5.001,4.470 4.393 C 5.239 3.659,6.330 3.369,8.637 3.282 C 9.832 3.237,14.094 3.236,15.220 3.280 M8.420 6.260 C 8.398 6.267,8.331 6.284,8.271 6.297 C 8.124 6.329,7.881 6.548,7.814 6.708 C 7.770 6.813,7.760 7.450,7.760 10.098 L 7.760 13.359 7.471 13.505 C 6.399 14.044,5.955 15.377,6.480 16.474 C 7.146 17.864,8.991 18.176,10.084 17.084 C 11.156 16.011,10.876 14.206,9.530 13.506 L 9.240 13.356 9.240 10.100 C 9.240 7.898,9.226 6.809,9.197 6.733 C 9.146 6.597,8.977 6.412,8.840 6.342 C 8.732 6.287,8.485 6.238,8.420 6.260 M15.123 6.283 C 14.467 6.368,13.789 6.881,13.480 7.526 C 12.954 8.623,13.399 9.956,14.471 10.495 L 14.760 10.641 14.760 13.898 C 14.760 16.102,14.774 17.191,14.803 17.267 C 14.905 17.540,15.193 17.731,15.500 17.731 C 15.807 17.731,16.095 17.540,16.197 17.267 C 16.226 17.191,16.240 16.102,16.240 13.900 L 16.240 10.644 16.530 10.494 C 17.872 9.797,18.155 7.985,17.090 6.922 C 16.740 6.573,16.284 6.341,15.827 6.281 C 15.483 6.236,15.490 6.236,15.123 6.283 M15.812 7.825 C 16.089 7.965,16.240 8.203,16.240 8.500 C 16.240 8.950,15.893 9.265,15.434 9.232 C 15.168 9.213,14.964 9.080,14.832 8.839 C 14.712 8.623,14.746 8.249,14.903 8.056 C 14.968 7.975,15.084 7.875,15.160 7.834 C 15.332 7.742,15.640 7.738,15.812 7.825 M8.812 14.825 C 9.089 14.965,9.240 15.203,9.240 15.500 C 9.240 15.950,8.893 16.265,8.434 16.232 C 8.168 16.213,7.964 16.080,7.832 15.839 C 7.712 15.623,7.746 15.249,7.903 15.056 C 7.968 14.975,8.084 14.875,8.160 14.834 C 8.332 14.742,8.640 14.738,8.812 14.825 " stroke="none" fill-rule="evenodd" fill="black"></path></svg>