<svg fill="none" height="24" viewBox="0 0 24 24" width="24" xmlns="http://www.w3.org/2000/svg"><path d="M7.800 2.279 C 6.570 2.314,6.045 2.359,5.420 2.485 C 4.375 2.695,3.705 3.049,2.978 3.777 C 2.013 4.742,1.572 5.759,1.378 7.460 C 1.342 7.773,1.301 8.780,1.275 9.990 C 1.224 12.299,1.277 15.652,1.378 16.540 C 1.572 18.241,2.013 19.258,2.978 20.223 C 3.948 21.194,4.872 21.546,6.820 21.688 C 7.774 21.757,16.226 21.757,17.180 21.688 C 18.375 21.601,19.104 21.446,19.743 21.144 C 20.267 20.896,20.564 20.682,21.022 20.223 C 21.987 19.258,22.428 18.241,22.622 16.540 C 22.780 15.151,22.780 8.849,22.622 7.460 C 22.521 6.572,22.335 5.818,22.075 5.242 C 21.767 4.562,20.969 3.610,20.365 3.202 C 19.592 2.681,18.691 2.423,17.280 2.319 C 16.556 2.266,9.351 2.236,7.800 2.279 M8.760 12.000 L 8.760 20.240 8.230 20.239 C 7.939 20.239,7.396 20.221,7.025 20.200 C 5.492 20.111,4.767 19.874,4.110 19.247 C 3.220 18.398,2.901 17.479,2.800 15.463 C 2.750 14.474,2.750 9.526,2.800 8.537 C 2.903 6.488,3.229 5.569,4.157 4.710 C 4.512 4.382,4.751 4.242,5.223 4.084 C 5.861 3.870,6.687 3.779,8.110 3.766 L 8.760 3.760 8.760 12.000 M16.975 3.800 C 18.508 3.889,19.233 4.126,19.890 4.753 C 20.778 5.600,21.099 6.525,21.200 8.537 C 21.250 9.526,21.250 14.474,21.200 15.463 C 21.116 17.138,20.888 18.010,20.347 18.729 C 19.885 19.342,19.402 19.710,18.789 19.913 C 17.934 20.197,17.222 20.239,13.270 20.239 L 10.240 20.240 10.240 12.000 L 10.240 3.760 13.270 3.761 C 14.937 3.761,16.604 3.779,16.975 3.800 M4.805 6.278 C 4.422 6.374,4.187 6.775,4.279 7.177 C 4.350 7.490,4.596 7.699,4.942 7.742 C 5.317 7.789,6.204 7.744,6.340 7.672 C 6.603 7.531,6.733 7.308,6.733 7.000 C 6.733 6.687,6.600 6.467,6.320 6.316 C 6.203 6.253,5.023 6.223,4.805 6.278 M4.805 9.278 C 4.422 9.374,4.187 9.775,4.279 10.177 C 4.350 10.490,4.596 10.699,4.942 10.742 C 5.317 10.789,6.204 10.744,6.340 10.672 C 6.603 10.531,6.733 10.308,6.733 10.000 C 6.733 9.687,6.600 9.467,6.320 9.316 C 6.203 9.253,5.023 9.223,4.805 9.278 " stroke="none" fill-rule="evenodd" fill="black"></path></svg>