<svg fill="none" height="24" viewBox="0 0 24 24" width="24" xmlns="http://www.w3.org/2000/svg"><path d="M8.380 1.283 C 5.756 1.358,4.541 1.719,3.598 2.706 C 3.284 3.034,3.144 3.234,2.930 3.660 C 2.337 4.843,2.242 5.986,2.242 12.000 C 2.242 16.527,2.298 18.031,2.504 19.060 C 2.703 20.053,3.097 20.821,3.706 21.402 C 4.445 22.110,5.296 22.447,6.780 22.621 C 8.343 22.804,15.657 22.804,17.220 22.621 C 18.176 22.509,18.776 22.353,19.340 22.070 C 19.766 21.856,19.966 21.716,20.294 21.402 C 20.903 20.821,21.297 20.053,21.496 19.060 C 21.701 18.038,21.758 16.498,21.758 12.000 C 21.758 5.998,21.662 4.841,21.070 3.660 C 20.856 3.234,20.716 3.034,20.402 2.706 C 20.087 2.376,19.770 2.144,19.340 1.929 C 18.478 1.499,17.534 1.342,15.420 1.280 C 13.960 1.237,9.928 1.239,8.380 1.283 M17.033 2.855 C 19.174 3.134,19.873 3.832,20.144 5.967 C 20.198 6.396,20.215 6.964,20.230 8.870 L 20.248 11.240 12.000 11.240 L 3.752 11.240 3.770 8.870 C 3.785 6.964,3.802 6.396,3.856 5.967 C 4.148 3.673,4.956 2.986,7.582 2.803 C 7.845 2.784,9.959 2.773,12.280 2.777 C 16.025 2.784,16.560 2.793,17.033 2.855 M20.230 15.130 C 20.215 17.036,20.198 17.604,20.144 18.033 C 19.871 20.181,19.168 20.876,16.991 21.148 C 16.473 21.213,16.008 21.220,12.000 21.220 C 7.992 21.220,7.527 21.213,7.009 21.148 C 4.832 20.876,4.129 20.181,3.856 18.033 C 3.802 17.604,3.785 17.036,3.770 15.130 L 3.752 12.760 12.000 12.760 L 20.248 12.760 20.230 15.130 M16.665 14.059 C 16.116 14.254,15.849 14.893,16.095 15.422 C 16.307 15.878,16.791 16.090,17.290 15.944 C 17.589 15.858,17.853 15.599,17.939 15.310 C 18.015 15.053,18.015 14.947,17.939 14.690 C 17.788 14.180,17.175 13.877,16.665 14.059 M6.900 14.259 C 6.878 14.267,6.812 14.284,6.753 14.296 C 6.614 14.327,6.414 14.497,6.332 14.655 C 6.248 14.816,6.248 15.183,6.331 15.340 C 6.366 15.406,6.630 15.694,6.917 15.979 L 7.440 16.499 6.904 17.039 C 6.610 17.337,6.346 17.625,6.318 17.680 C 6.252 17.809,6.252 18.192,6.318 18.320 C 6.394 18.466,6.523 18.599,6.660 18.670 C 6.816 18.752,7.186 18.751,7.340 18.669 C 7.406 18.634,7.694 18.370,7.979 18.083 L 8.499 17.560 9.039 18.096 C 9.337 18.390,9.625 18.654,9.680 18.682 C 9.809 18.748,10.192 18.748,10.320 18.682 C 10.466 18.606,10.599 18.477,10.670 18.340 C 10.746 18.195,10.753 17.818,10.682 17.680 C 10.654 17.625,10.390 17.337,10.096 17.039 L 9.560 16.499 10.083 15.979 C 10.370 15.694,10.634 15.406,10.669 15.340 C 10.751 15.186,10.752 14.816,10.670 14.660 C 10.599 14.523,10.466 14.394,10.320 14.318 C 10.192 14.252,9.809 14.252,9.680 14.318 C 9.625 14.346,9.337 14.610,9.039 14.904 L 8.499 15.440 7.979 14.917 C 7.694 14.630,7.415 14.371,7.360 14.342 C 7.254 14.287,6.968 14.235,6.900 14.259 M14.673 17.061 C 14.308 17.178,14.000 17.608,14.000 18.000 C 14.000 18.415,14.310 18.828,14.710 18.944 C 15.209 19.090,15.693 18.878,15.905 18.422 C 16.137 17.924,15.933 17.355,15.429 17.094 C 15.256 17.005,14.896 16.989,14.673 17.061 " stroke="none" fill-rule="evenodd" fill="black"></path></svg>