<svg fill="none" height="24" viewBox="0 0 24 24" width="24" xmlns="http://www.w3.org/2000/svg"><g stroke="#141b34" stroke-linecap="round" stroke-linejoin="round" stroke-width="1.5"><path d="m12 19.9998v-5m3 3.0002-2.2929 2.4629c-.3333.3581-.5.5371-.7071.5371s-.3738-.179-.7071-.5371l-2.2929-2.4629"/><path d="m20 11.9999h-5m2.9999 3.0001 2.463-2.2929c.358-.3333.537-.5.537-.7071s-.179-.3738-.537-.7071l-2.463-2.2929"/><path d="m12 9.00004v-4.99999m3 1.99995-2.2929-2.46292c-.3333-.35805-.5-.53708-.7071-.53708s-.3738.17903-.7071.53708l-2.2929 2.46292"/><path d="m8.99995 11.9999-5 .0001m2.00005-3-2.46292 2.2929c-.35805.3333-.53708.5-.53708.7071s.17903.3738.53708.7071l2.46292 2.2929"/></g></svg>