<svg fill="none" height="24" viewBox="0 0 24 24" width="24" xmlns="http://www.w3.org/2000/svg"><path d="m22 10.25c.4142 0 .75.3358.75.75s-.3358.75-.75.75zm-20 3.5c-.41421 0-.75-.3358-.75-.75s.33579-.75.75-.75zm20-2h-1.956v-1.5h1.956zm-5.2905 3.25v2.0845h-1.5v-2.0845zm-5.4121 2.0845v-10.11907h1.5v10.11907zm-2.51403-10.11907v2.03457h-1.5v-2.03457zm-4.8346 6.78457h-1.94877v-1.5h1.94877zm4.8346-4.75c0 2.6381-2.1794 4.75-4.8346 4.75v-1.5c1.85653 0 3.3346-1.4698 3.3346-3.25zm1.25703-3.25c-.70913 0-1.25703.55889-1.25703 1.21543h-1.5c0-1.51441 1.24922-2.71543 2.75703-2.71543zm1.257 1.21543c0-.65654-.5479-1.21543-1.257-1.21543v-1.5c1.5077 0 2.757 1.20102 2.757 2.71543zm2.706 12.78457c-1.4796 0-2.706-1.1787-2.706-2.6655h1.5c0 .629.5251 1.1655 1.206 1.1655zm2.7061-2.6655c0 1.4868-1.2265 2.6655-2.7061 2.6655v-1.5c.681 0 1.2061-.5365 1.2061-1.1655zm3.3345-5.3345c-1.8565 0-3.3345 1.4698-3.3345 3.25h-1.5c0-2.6381 2.1794-4.75 4.8345-4.75z" fill="#141b34"/><path d="m3.99998 15s-1.99998-1.473-1.99998-2c0-.5271 2-2 2-2" stroke="#141b34" stroke-linecap="round" stroke-linejoin="round" stroke-width="1.5"/></svg>