<svg fill="none" height="24" viewBox="0 0 24 24" width="24" xmlns="http://www.w3.org/2000/svg"><g stroke="#141b34" stroke-linecap="round" stroke-linejoin="round" stroke-width="1.5"><path d="m3 11h.95595c2.25586 0 4.0846 1.7909 4.0846 4v2.0845c0 1.0579.87575 1.9155 1.95604 1.9155 1.08031 0 1.95601-.8576 1.95601-1.9155v-10.11907c0-1.08548.8986-1.96543 2.007-1.96543 1.1085 0 2.007.87995 2.007 1.96543v2.03457c0 2.2091 1.8288 4 4.0846 4h.9488"/><path d="m20 11 1.2929 1.2929c.3333.3333.5.5.5.7071s-.1667.3738-.5.7071l-1.2929 1.2929"/><path d="m4 13-1.29289-1.2929c-.33334-.3333-.5-.5-.5-.7071s.16666-.3738.5-.7071l1.29289-1.2929"/></g></svg>