<svg fill="none" height="24" viewBox="0 0 24 24" width="24" xmlns="http://www.w3.org/2000/svg"><g stroke="#141b34" stroke-linecap="round" stroke-linejoin="round" stroke-width="1.5"><path d="m11 21.5v-1.456c0-2.2558 1.7909-4.0845 4-4.0845h2.0845c1.0579 0 1.9155-.8758 1.9155-1.9561s-.8576-1.956-1.9155-1.956h-10.11907c-1.08548 0-1.96543-.8986-1.96543-2.007 0-1.10847.87995-2.00703 1.96543-2.00703h2.03457c2.2091 0 4-1.82874 4-4.0846v-1.44877"/><path d="m15 4-1.2929-1.29289c-.3333-.33334-.5-.5-.7071-.5s-.3738.16666-.7071.5l-1.2929 1.29289"/><path d="m13 20-1.2929 1.2929c-.3333.3333-.5.5-.7071.5s-.3738-.1667-.7071-.5l-1.2929-1.2929"/></g></svg>