<svg fill="none" height="24" viewBox="0 0 24 24" width="24" xmlns="http://www.w3.org/2000/svg"><g stroke="#141b34" stroke-width="1.5"><path d="m2.5 11.9999c0-4.4783 0-6.71748 1.39124-8.10872 1.39125-1.39124 3.63042-1.39124 8.10876-1.39124 4.4783 0 6.7175 0 8.1088 1.39124 1.3912 1.39124 1.3912 3.63042 1.3912 8.10872 0 4.4784 0 6.7176-1.3912 8.1088-1.3913 1.3912-3.6305 1.3912-8.1088 1.3912-4.47834 0-6.71751 0-8.10876-1.3912-1.39124-1.3912-1.39124-3.6304-1.39124-8.1088z"/><path d="m12.5 15.9999h3.5m0 0v-3.5m0 3.5-8-7.99996m0 0h3.5m-3.5 0v3.49996" stroke-linecap="round" stroke-linejoin="round"/></g></svg>