<svg fill="none" height="24" viewBox="0 0 24 24" width="24" xmlns="http://www.w3.org/2000/svg"><g stroke="#141b34" stroke-width="1.5"><path d="m2.5 12c0-4.47834 0-6.71751 1.39124-8.10876 1.39125-1.39124 3.63042-1.39124 8.10876-1.39124 4.4783 0 6.7175 0 8.1088 1.39124 1.3912 1.39125 1.3912 3.63042 1.3912 8.10876 0 4.4783 0 6.7175-1.3912 8.1088-1.3913 1.3912-3.6305 1.3912-8.1088 1.3912-4.47834 0-6.71751 0-8.10876-1.3912-1.39124-1.3913-1.39124-3.6305-1.39124-8.1088z"/><path d="m8 13.1667 2.1144 2.0442c.8889.8594 1.3333 1.2891 1.8856 1.2891s.9967-.4297 1.8856-1.2891l2.1144-2.0442m-8-5.6667 2.1144 2.04423c.8889.85937 1.3333 1.28907 1.8856 1.28907s.9967-.4297 1.8856-1.28907l2.1144-2.04423" stroke-linecap="round" stroke-linejoin="round"/></g></svg>