<svg fill="none" height="24" viewBox="0 0 24 24" width="24" xmlns="http://www.w3.org/2000/svg"><g stroke="#141b34" stroke-width="1.5"><path d="m7.4852 16.5149c-.5748-.5748-.47925-3.0167-.47925-3.0167m.47925 3.0167c.57481.5748 3.0167.4791 3.0167.4791m-3.0167-.4791 3.5148-3.5149m5.5149-5.51488c-.5748-.57481-3.0167-.47916-3.0167-.47916m3.0167.47916c.5748.57481.4791 3.01668.4791 3.01668m-.4791-3.01668-3.5149 3.51488" stroke-linecap="round" stroke-linejoin="round"/><path d="m2.5 12c0-4.47834 0-6.71751 1.39124-8.10876 1.39125-1.39124 3.63042-1.39124 8.10876-1.39124 4.4783 0 6.7175 0 8.1088 1.39124 1.3912 1.39125 1.3912 3.63042 1.3912 8.10876 0 4.4783 0 6.7175-1.3912 8.1088-1.3913 1.3912-3.6305 1.3912-8.1088 1.3912-4.47834 0-6.71751 0-8.10876-1.3912-1.39124-1.3913-1.39124-3.6305-1.39124-8.1088z"/></g></svg>