<svg fill="none" height="24" viewBox="0 0 24 24" width="24" xmlns="http://www.w3.org/2000/svg"><g stroke="#141b34" stroke-linecap="round" stroke-linejoin="round" stroke-width="1.5"><path d="m12.4417 14.553-2.3059 2.7001c-.99459 1.1646-1.4919 1.7469-2.1358 1.7469s-1.14121-.5823-2.13582-1.7469l-2.30589-2.7001c-1.03886-1.2164-1.55829-1.8246-1.55829-2.553s.51943-1.3366 1.55829-2.55301l2.30589-2.70005c.99461-1.16463 1.49192-1.74694 2.13582-1.74694s1.14121.58231 2.1358 1.74694l2.3059 2.70005c1.0389 1.21641 1.5583 1.82461 1.5583 2.55301s-.5194 1.3366-1.5583 2.553z"/><path d="m13 19 3.5118-4.3968c.9921-1.2422 1.4882-1.8634 1.4882-2.6032s-.4961-1.361-1.4882-2.60317l-3.5118-4.39683"/><path d="m17 19 3.5118-4.3968c.9921-1.2422 1.4882-1.8634 1.4882-2.6032s-.4961-1.361-1.4882-2.60317l-3.5118-4.39683"/></g></svg>