<svg fill="none" height="24" viewBox="0 0 24 24" width="24" xmlns="http://www.w3.org/2000/svg"><g stroke="#141b34" stroke-linecap="round" stroke-width="1.5"><path d="m6.5 6.15642c.66531-.77095 1.08503-1.15642 1.60017-1.15642.63315 0 1.12215.58231 2.10013 1.74694l2.2674 2.70005c1.0215 1.21641 1.5323 1.82461 1.5323 2.55301s-.5108 1.3366-1.5323 2.553l-2.2674 2.7001c-.97798 1.1646-1.46698 1.7469-2.10013 1.7469-.51514 0-.93486-.3855-1.60017-1.1564" stroke-linejoin="round"/><path d="m2 12h6"/><g stroke-linejoin="round"><path d="m13 19 3.5118-4.3968c.9921-1.2422 1.4882-1.8634 1.4882-2.6032s-.4961-1.361-1.4882-2.60317l-3.5118-4.39683"/><path d="m17 19 3.5118-4.3968c.9921-1.2422 1.4882-1.8634 1.4882-2.6032s-.4961-1.361-1.4882-2.60317l-3.5118-4.39683"/></g></g></svg>