<svg fill="none" height="24" viewBox="0 0 24 24" width="24" xmlns="http://www.w3.org/2000/svg"><g stroke="#141b34" stroke-linecap="round" stroke-width="1.5"><path d="m14.002 4.5c.3755-.33333.6962-.5 1.066-.5.6981 0 1.2216.59409 2.2685 1.78228l2.5748 2.9222c1.3923 1.58022 2.0885 2.37022 2.0885 3.29552s-.6962 1.7153-2.0885 3.2955l-2.5748 2.9222c-1.0469 1.1882-1.5704 1.7823-2.2685 1.7823-.3698 0-.6905-.1667-1.066-.5"/><path d="m7 5.4398c.86196-.95987 1.35392-1.4398 1.98862-1.4398.70616 0 1.23568.59409 2.29458 1.78228l2.6043 2.9222c1.4084 1.58022 2.1125 2.37022 2.1125 3.29552s-.7041 1.7153-2.1124 3.2955l-2.6044 2.9222c-1.0589 1.1882-1.58842 1.7823-2.29458 1.7823-.6347 0-1.12666-.4799-1.98862-1.4398"/><path d="m5.5 15.5v-7m-3.5 3.5h7"/></g></svg>