<svg fill="none" height="24" viewBox="0 0 24 24" width="24" xmlns="http://www.w3.org/2000/svg"><g stroke="#141b34" stroke-width="1.5"><path d="m10.8546 8.89114c.5286-.59409.7929-.89114 1.1454-.89114s.6168.29705 1.1454.89114l1.3001 1.46106c.703.7901 1.0545 1.1852 1.0545 1.6478s-.3515.8577-1.0545 1.6478l-1.3001 1.4611c-.5286.5941-.7929.8911-1.1454.8911s-.6168-.297-1.1454-.8911l-1.30009-1.4611c-.70301-.7901-1.05451-1.1852-1.05451-1.6478s.3515-.8577 1.05451-1.6478z"/><g stroke-linecap="round" stroke-linejoin="round"><path d="m5 12h-3"/><path d="m22 12h-3"/><path d="m12 19v3"/><path d="m12 2v3"/></g></g></svg>