<svg fill="none" height="24" viewBox="0 0 24 24" width="24" xmlns="http://www.w3.org/2000/svg"><g stroke="#141b34" stroke-width="1.5"><path d="m4.51311 12c-.40131-.0584-.71975-.1557-.9999-.3174-.46008-.2656-.84212-.6477-1.10775-1.1078-.40546-.70224-.40546-1.64508-.40546-3.53077s0-2.82854.40546-3.53082c.26563-.46008.64767-.84212 1.10775-1.10775.70228-.40546 1.64513-.40546 3.53082-.40546s2.82853 0 3.53077.40546c.4601.26563.8422.64767 1.1078 1.10775.1617.28015.259.59859.3174.9999" stroke-linecap="round"/><path d="m9.52169 17c-.40545-.0583-.72649-.1557-1.00868-.3187-.46001-.2655-.84201-.6475-1.1076-1.1076-.40541-.7022-.40541-1.6449-.40541-3.5303 0-1.8855 0-2.8282.40541-3.53039.26559-.46001.64759-.84201 1.1076-1.1076.70219-.40541 1.64489-.40541 3.53039-.40541 1.8854 0 2.8281 0 3.5303.40541.4601.26559.8421.64759 1.1076 1.1076.163.28219.2604.60323.3187 1.00868" stroke-linecap="round"/><path d="m12 17c0-1.8692 0-2.8038.4019-3.5.2633-.4561.642-.8348 1.0981-1.0981.6962-.4019 1.6308-.4019 3.5-.4019s2.8038 0 3.5.4019c.4561.2633.8348.642 1.0981 1.0981.4019.6962.4019 1.6308.4019 3.5s0 2.8038-.4019 3.5c-.2633.4561-.642.8348-1.0981 1.0981-.6962.4019-1.6308.4019-3.5.4019s-2.8038 0-3.5-.4019c-.4561-.2633-.8348-.642-1.0981-1.0981-.4019-.6962-.4019-1.6308-.4019-3.5z"/></g></svg>