<svg fill="none" height="24" viewBox="0 0 24 24" width="24" xmlns="http://www.w3.org/2000/svg"><g stroke="#141b34" stroke-width="1.5"><path d="m11 16.5c0-2.0562 0-3.0842.4421-3.85.2897-.5017.7062-.9182 1.2079-1.2079.7658-.4421 1.7938-.4421 3.85-.4421s3.0842 0 3.85.4421c.5017.2897.9182.7062 1.2079 1.2079.4421.7658.4421 1.7938.4421 3.85s0 3.0842-.4421 3.85c-.2897.5017-.7062.9182-1.2079 1.2079-.7658.4421-1.7938.4421-3.85.4421s-3.0842 0-3.85-.4421c-.5017-.2897-.9182-.7062-1.2079-1.2079-.4421-.7658-.4421-1.7938-.4421-3.85z"/><g stroke-linecap="round"><path d="m8.51338 15c-.48671-.0463-.84736-.1372-1.15615-.3155-.41265-.2382-.75532-.5809-.99356-.9936-.36367-.6298-.36367-1.4755-.36367-3.1668 0-1.69133 0-2.53698.36367-3.16687.23824-.41265.58091-.75532.99356-.99356.62989-.36367 1.47554-.36367 3.16687-.36367 1.6913 0 2.537 0 3.1668.36367.4127.23824.7554.58091.9936.99356.1783.30879.2692.66944.3155 1.15615"/><path d="m3.41611 9c-.47748-.14456-.88089-.5032-1.12794-.92943-.28817-.49718-.28817-1.16467-.28817-2.49964 0-1.33498 0-2.00247.28817-2.49965.18879-.32571.46033-.59618.78731-.78423.49914-.28705 1.16925-.28705 2.50947-.28705 1.34021 0 2.01032 0 2.50946.28705.40133.2308.74814.60133.90559 1.04053"/></g></g></svg>