<svg fill="none" height="24" viewBox="0 0 24 24" width="24" xmlns="http://www.w3.org/2000/svg"><g stroke="#141b34" stroke-width="1.5"><path d="m18 21.9999c1.4001 0 2.1002 0 2.635-.2724.4704-.2397.8528-.6222 1.0925-1.0926.2725-.5348.2725-1.2348.2725-2.635 0-1.4001 0-2.1002-.2725-2.6349-.2397-.4704-.6221-.8529-1.0925-1.0926-.5348-.2725-1.2349-.2725-2.635-.2725h-12c-1.40013 0-2.1002 0-2.63498.2725-.4704.2397-.85285.6222-1.09254 1.0926-.27248.5347-.27248 1.2348-.27248 2.6349 0 1.4002 0 2.1002.27248 2.635.23969.4704.62214.8529 1.09254 1.0926.53478.2724 1.23485.2724 2.63498.2724z"/><g stroke-linecap="round"><path d="m12 5.99994v7.99996m0-7.99996c-.7002 0-2.00847 1.9943-2.5 2.5m2.5-2.5c.7002 0 2.0085 1.9943 2.5 2.5" stroke-linejoin="round"/><path d="m2 7.99994c0-2.33889 0-3.50833.53646-4.36211.27975-.44522.65621-.82168 1.10143-1.10143.85378-.53646 2.02322-.53646 4.36211-.53646h8c2.3389 0 3.5083 0 4.3621.53646.4452.27975.8217.65621 1.1014 1.10143.5365.85378.5365 2.02322.5365 4.36211"/></g></g></svg>