<svg fill="none" height="24" viewBox="0 0 24 24" width="24" xmlns="http://www.w3.org/2000/svg"><g stroke="#141b34" stroke-width="1.5"><path d="m22 6c0-1.40013 0-2.1002-.2725-2.63498-.2397-.4704-.6221-.85285-1.0925-1.09254-.5348-.27248-1.2349-.27248-2.635-.27248s-2.1002 0-2.635.27248c-.4704.23969-.8528.62214-1.0925 1.09254-.2725.53478-.2725 1.23485-.2725 2.63498v12c0 1.4001 0 2.1002.2725 2.635.2397.4704.6221.8528 1.0925 1.0925.5348.2725 1.2349.2725 2.635.2725s2.1002 0 2.635-.2725c.4704-.2397.8528-.6221 1.0925-1.0925.2725-.5348.2725-1.2349.2725-2.635z"/><g stroke-linecap="round"><path d="m6 12h8m-8 0c0-.7002 1.9943-2.00847 2.5-2.5m-2.5 2.5c0 .7002 1.9943 2.0085 2.5 2.5" stroke-linejoin="round"/><path d="m8 22c-2.33889 0-3.50833 0-4.36211-.5365-.44522-.2797-.82168-.6562-1.10142-1.1014-.53647-.8538-.53647-2.0232-.53647-4.3621v-8c0-2.33889 0-3.50833.53647-4.36211.27974-.44522.6562-.82168 1.10142-1.10142.85378-.53647 2.02322-.53647 4.36211-.53647"/></g></g></svg>