<svg fill="none" height="24" viewBox="0 0 24 24" width="24" xmlns="http://www.w3.org/2000/svg"><g stroke="#141b34" stroke-width="1.5"><path d="m18 1.99994c1.4001 0 2.1002 0 2.635.27248.4704.23969.8528.62214 1.0925 1.09254.2725.53478.2725 1.23485.2725 2.63498s0 2.1002-.2725 2.63498c-.2397.4704-.6221.85285-1.0925 1.09254-.5348.27248-1.2349.27248-2.635.27248h-12c-1.40013 0-2.1002 0-2.63498-.27248-.4704-.23969-.85285-.62214-1.09254-1.09254-.27248-.53478-.27248-1.23485-.27248-2.63498s0-2.1002.27248-2.63498c.23969-.4704.62214-.85285 1.09254-1.09254.53478-.27248 1.23485-.27248 2.63498-.27248z"/><g stroke-linecap="round"><path d="m12 17.9999v-7.99996m0 7.99996c-.7002 0-2.00847-1.9943-2.5-2.5m2.5 2.5c.7002 0 2.0085-1.9943 2.5-2.5" stroke-linejoin="round"/><path d="m2 15.9999c0 2.3389 0 3.5084.53646 4.3622.27975.4452.65621.8216 1.10143 1.1014.85378.5364 2.02322.5364 4.36211.5364h8c2.3389 0 3.5083 0 4.3621-.5364.4452-.2798.8217-.6562 1.1014-1.1014.5365-.8538.5365-2.0233.5365-4.3622"/></g></g></svg>