<svg fill="none" height="24" viewBox="0 0 24 24" width="24" xmlns="http://www.w3.org/2000/svg"><g stroke="#141b34" stroke-width="1.5"><path d="m2 6c0-1.40013 0-2.1002.27248-2.63498.23969-.4704.62214-.85285 1.09254-1.09254.53478-.27248 1.23485-.27248 2.63498-.27248s2.1002 0 2.63498.27248c.4704.23969.85285.62214 1.09254 1.09254.27248.53478.27248 1.23485.27248 2.63498v12c0 1.4001 0 2.1002-.27248 2.635-.23969.4704-.62214.8528-1.09254 1.0925-.53478.2725-1.23485.2725-2.63498.2725s-2.1002 0-2.63498-.2725c-.4704-.2397-.85285-.6221-1.09254-1.0925-.27248-.5348-.27248-1.2349-.27248-2.635z"/><g stroke-linecap="round"><path d="m16 22c2.3389 0 3.5083 0 4.3621-.5365.4452-.2797.8217-.6562 1.1014-1.1014.5365-.8538.5365-2.0232.5365-4.3621v-8c0-2.33889 0-3.50833-.5365-4.36211-.2797-.44522-.6562-.82168-1.1014-1.10142-.8538-.53647-2.0232-.53647-4.3621-.53647"/><path d="m18 12h-8m8 0c0-.7002-1.9943-2.00847-2.5-2.5m2.5 2.5c0 .7002-1.9943 2.0085-2.5 2.5" stroke-linejoin="round"/></g></g></svg>