<svg fill="none" height="24" viewBox="0 0 24 24" width="24" xmlns="http://www.w3.org/2000/svg"><g stroke="#141b34"><path d="m2.5 12c0-4.47834 0-6.71751 1.39124-8.10876 1.39125-1.39124 3.63042-1.39124 8.10876-1.39124 4.4783 0 6.7175 0 8.1088 1.39124 1.3912 1.39125 1.3912 3.63042 1.3912 8.10876 0 4.4783 0 6.7175-1.3912 8.1088-1.3913 1.3912-3.6305 1.3912-8.1088 1.3912-4.47834 0-6.71751 0-8.10876-1.3912-1.39124-1.3913-1.39124-3.6305-1.39124-8.1088z" stroke-width="1.5"/><g stroke-linecap="round"><path d="m10 9c0-1.10457.8954-2 2-2s2 .89543 2 2c0 .39815-.1163.76913-.3169 1.0808-.5977.9289-1.6831 1.8146-1.6831 2.9192v.5" stroke-width="1.5"/><path d="m11.992 17h.009" stroke-linejoin="round" stroke-width="2"/></g></g></svg>