<svg fill="none" height="24" viewBox="0 0 24 24" width="24" xmlns="http://www.w3.org/2000/svg"><g stroke="#141b34" stroke-linecap="round" stroke-width="1.5"><path d="m17.5 17.8286c-4.181 1.0813-9.26051.8565-13.06795-.6744-1.16405-.468-2.11478-1.4071-1.90213-2.7602.13069-.8315.77692-1.5239 1.25569-2.2.62711-.8965.68942-1.8743.68952-2.91459 0-1.3384.37338-2.70193 1.02487-3.77944" stroke-linejoin="round"/><path d="m7.5 3.5c1.26108-.94083 2.839-1.5 4.5511-1.5 4.1335 0 7.4844 3.2591 7.4844 7.27941.0001 1.04029.0621 2.01809.6858 2.91459.4762.6761 1.119 1.3685 1.2489 2.2.1382.884-.2175 1.5913-.8036 2.106" stroke-linejoin="round"/><path d="m22 22-20-20"/><path d="m9 21c.79613.6219 1.8475 1 3 1s2.2039-.3781 3-1" stroke-linejoin="round"/></g></svg>