<svg fill="none" height="24" viewBox="0 0 24 24" width="24" xmlns="http://www.w3.org/2000/svg"><g stroke="#141b34" stroke-width="1.5"><path d="m22 5.5c0 1.933-1.567 3.5-3.5 3.5s-3.5-1.567-3.5-3.5 1.567-3.5 3.5-3.5 3.5 1.567 3.5 3.5z"/><g stroke-linecap="round"><path d="m21.9506 11c.0327.3289.0494.6625.0494 1 0 5.5228-4.4772 10-10 10-5.52285 0-10-4.4772-10-10 0-5.52285 4.47715-10 10-10 .3375 0 .6711.01672 1 .04938"/><path d="m8 10h4" stroke-linejoin="round"/><path d="m8 15h8" stroke-linejoin="round"/></g></g></svg>