<svg fill="none" height="24" viewBox="0 0 24 24" width="24" xmlns="http://www.w3.org/2000/svg"><g stroke="#141b34" stroke-linecap="round" stroke-width="1.5"><path d="m14 2.41138c-.7822-.26644-1.6236-.41138-2.5-.41138-4.15587 0-7.52487 3.2591-7.52487 7.27941-.0001 1.04029-.06241 2.01809-.68952 2.91459-.47877.6761-1.125 1.3685-1.25569 2.2-.21265 1.3531.73808 2.2922 1.90213 2.7602 4.46276 1.7944 10.67315 1.7944 15.13585 0 1.1641-.468 2.1148-1.4071 1.9022-2.7602-.0797-.5071-.3512-.9625-.6595-1.394" stroke-linejoin="round"/><path d="m15.05 5.05 4.9 4.9m1.05-2.45c0-1.933-1.567-3.5-3.5-3.5s-3.5 1.567-3.5 3.5 1.567 3.5 3.5 3.5 3.5-1.567 3.5-3.5z"/><path d="m8.5 21c.79613.6219 1.8475 1 3 1s2.2039-.3781 3-1" stroke-linejoin="round"/></g></svg>