<svg fill="none" height="24" viewBox="0 0 24 24" width="24" xmlns="http://www.w3.org/2000/svg"><g stroke="#141b34" stroke-linecap="round" stroke-linejoin="round" stroke-width="1.5"><path d="m20 11.8453c.0629.1175.134.2338.2144.3487.4788.6761 1.125 1.3685 1.2557 2.2.2126 1.3531-.7381 2.2922-1.9022 2.7602-4.4627 1.7944-10.67309 1.7944-15.13585 0-1.16405-.468-2.11478-1.4071-1.90213-2.7602.13069-.8315.77692-1.5239 1.25569-2.2.62711-.8965.68942-1.8743.68952-2.91459 0-4.02031 3.369-7.27941 7.52487-7.27941.5136 0 1.0153.04979 1.5.14464"/><path d="m16.016 3h3.6724c.7727 0 1.159 0 1.2619.24011.1029.24012-.16.52816-.6857 1.10425l-3.4177 3.31128c-.5257.57609-.9338.86413-.8309 1.10425.1029.24011.6344.24011 1.407.24011h3.577"/><path d="m9 21c.79613.6219 1.8475 1 3 1s2.2039-.3781 3-1"/></g></svg>