<svg fill="none" height="24" viewBox="0 0 24 24" width="24" xmlns="http://www.w3.org/2000/svg"><g stroke="#141b34" stroke-linecap="round" stroke-linejoin="round" stroke-width="1.5"><path d="m13.5 2.14902c-.4847-.09773-.9864-.14902-1.5-.14902-4.15587 0-7.52487 3.35786-7.52487 7.5-.0001 1.0718-.06241 2.0793-.68952 3.0029-.47877.6966-1.125 1.41-1.25569 2.2667-.21265 1.394.73808 2.3616 1.90213 2.8438 4.46276 1.8488 10.67315 1.8488 15.13585 0 1.1641-.4822 2.1148-1.4498 1.9022-2.8438-.0999-.6547-.5009-1.2258-.8982-1.7696"/><path d="m16.016 4h3.6724c.7727 0 1.159 0 1.2619.24011.1029.24012-.16.52816-.6857 1.10425l-3.4177 3.31128c-.5257.57609-.9338.86413-.8309 1.10425.1029.24011.6344.24011 1.407.24011h3.577"/><path d="m8 19c.45849 1.7252 2.0755 3 4 3s3.5415-1.2748 4-3"/></g></svg>