<svg fill="none" height="24" viewBox="0 0 24 24" width="24" xmlns="http://www.w3.org/2000/svg"><g stroke="#141b34" stroke-linecap="round" stroke-linejoin="round" stroke-width="1.5"><path d="m2.52992 14.7696c-.21265 1.394.73808 2.3616 1.90213 2.8438 4.46276 1.8488 10.67315 1.8488 15.13585 0 1.1641-.4822 2.1148-1.4498 1.9022-2.8438-.1307-.8567-.7769-1.5701-1.2557-2.2667-.6271-.9236-.6894-1.9311-.6895-3.0029 0-4.14214-3.369-7.5-7.5249-7.5-4.15587 0-7.52487 3.35786-7.52487 7.5-.0001 1.0718-.06241 2.0793-.68952 3.0029-.47877.6966-1.125 1.41-1.25569 2.2667z"/><path d="m8 19c.45849 1.7252 2.0755 3 4 3s3.5415-1.2748 4-3"/></g></svg>