<svg fill="none" height="24" viewBox="0 0 24 24" width="24" xmlns="http://www.w3.org/2000/svg"><g stroke="#141b34" stroke-linecap="round" stroke-width="1.5"><path d="m18 18.1673c-4.2703 1.2715-9.60737 1.0869-13.56795-.5538-1.16405-.4823-2.11478-1.4498-1.90213-2.8439.13069-.8567.77692-1.5701 1.25569-2.2667.62711-.9236.68942-1.9311.68952-3.00289 0-1.37896.37338-2.88986 1.02487-4.00003" stroke-linejoin="round"/><path d="m7.5 3.48831c1.25404-.93479 2.8103-1.48831 4.4962-1.48831 4.1525 0 7.5187 3.35786 7.5187 7.5 0 1.0718.0623 2.0793.6889 3.0029.4784.6966 1.1241 1.41 1.2546 2.2667.1204.79-.0162 1.225-.4697 1.7304" stroke-linejoin="round"/><path d="m22 22-20-20"/><path d="m8 19c.45849 1.7252 2.0755 3 4 3s3.5415-1.2748 4-3" stroke-linejoin="round"/></g></svg>