<svg fill="none" height="24" viewBox="0 0 24 24" width="24" xmlns="http://www.w3.org/2000/svg"><g stroke="#141b34" stroke-width="1.5"><path d="m19.0045 19h-14.204c-1.01848 0-1.8005-.8492-1.8005-1.8473 0-.7257.34173-1.4089.92239-1.8443 1.24758-.9354 1.16309-2.4214 1.23658-3.8174.08819-1.67512.77194-3.35079 1.84103-4.491" stroke-linecap="round" stroke-linejoin="round"/><path d="m9.5 5.5c.7958-.32266 1.5937-.5 2.5025-.5 3.6449 0 6.652 2.85223 6.8436 6.491.0735 1.396-.011 2.882 1.2366 3.8174.5397.4047.873 1.0236.9173 1.6916" stroke-linecap="round" stroke-linejoin="round"/><path d="m10.5 3.125c0 .82843.6716 1.875 1.5 1.875s1.5-1.04657 1.5-1.875-.6716-1.125-1.5-1.125-1.5.29657-1.5 1.125z"/><g stroke-linecap="round"><path d="m15 19c0 1.6569-1.3431 3-3 3s-3-1.3431-3-3" stroke-linejoin="round"/><path d="m22 22-20-20"/></g></g></svg>