<svg fill="none" height="24" viewBox="0 0 24 24" width="24" xmlns="http://www.w3.org/2000/svg"><g stroke="#141b34" stroke-width="1.5"><path d="m5.15837 11.491c-.07348 1.396.01099 2.882-1.23624 3.8174-.58049.4354-.92213 1.1186-.92213 1.8443 0 .9981.7818 1.8473 1.8 1.8473h14.4c1.0182 0 1.8-.8492 1.8-1.8473 0-.7257-.3416-1.4089-.9221-1.8443-1.2473-.9354-1.1628-2.4214-1.2363-3.8174-.1915-3.63877-3.1978-6.491-6.8416-6.491-3.64383 0-6.65012 2.85222-6.84163 6.491z" stroke-linecap="round" stroke-linejoin="round"/><path d="m10.5 3.125c0 .82843.6716 1.875 1.5 1.875s1.5-1.04657 1.5-1.875-.6716-1.125-1.5-1.125-1.5.29657-1.5 1.125z"/><path d="m15 19c0 1.6569-1.3431 3-3 3s-3-1.3431-3-3" stroke-linecap="round" stroke-linejoin="round"/></g></svg>