<svg fill="none" height="24" viewBox="0 0 24 24" width="24" xmlns="http://www.w3.org/2000/svg"><g stroke="#141b34" stroke-width="1.5"><path d="m21.9598 10.9707c.0536.8302.0536 1.69 0 2.5202-.2742 4.2423-3.6062 7.6216-7.7892 7.8996-1.4271.0949-2.917.0947-4.3412 0-.49044-.0326-1.025-.1496-1.48539-.3392-.51224-.211-.76841-.3165-.89857-.3005-.13017.016-.31904.1553-.69676.4338-.666.4911-1.50501.8439-2.74925.8136-.62917-.0153-.94375-.023-1.08459-.2631-.14083-.2401.03457-.5725.38537-1.2373.48653-.922.7948-1.9775.3277-2.8232-.80448-1.208-1.48781-2.6386-1.58767-4.1837-.05365-.8302-.05365-1.69 0-2.5202.27417-4.24232 3.60615-7.62157 7.78916-7.89963 1.2024-.07993 1.4518-.09251 2.6706-.03739" stroke-linecap="round" stroke-linejoin="round"/><path d="m22 5.5c0 1.933-1.567 3.5-3.5 3.5s-3.5-1.567-3.5-3.5 1.567-3.5 3.5-3.5 3.5 1.567 3.5 3.5z"/></g></svg>