<svg fill="none" height="24" viewBox="0 0 24 24" width="24" xmlns="http://www.w3.org/2000/svg"><g stroke="#141b34" stroke-linecap="round" stroke-width="1.5"><path d="m14 2.42385c-.7822-.27452-1.6236-.42385-2.5-.42385-4.15587 0-7.52487 3.35786-7.52487 7.5-.0001 1.0718-.06241 2.0793-.68952 3.0029-.47877.6966-1.125 1.41-1.25569 2.2667-.21265 1.394.73808 2.3616 1.90213 2.8438 4.46276 1.8488 10.67315 1.8488 15.13585 0 1.1641-.4822 2.1148-1.4498 1.9022-2.8438-.0999-.6547-.5009-1.2258-.8982-1.7696" stroke-linejoin="round"/><path d="m15.05 5.05 4.9 4.9m1.05-2.45c0-1.933-1.567-3.5-3.5-3.5s-3.5 1.567-3.5 3.5 1.567 3.5 3.5 3.5 3.5-1.567 3.5-3.5z"/><path d="m7.5 19c.45849 1.7252 2.07553 3 4 3 1.9245 0 3.5415-1.2748 4-3" stroke-linejoin="round"/></g></svg>