<svg fill="none" height="24" viewBox="0 0 24 24" width="24" xmlns="http://www.w3.org/2000/svg"><g stroke="#141b34" stroke-width="1.5"><path d="m13.5 5.29686c-.6334-.19313-1.3051-.29686-2-.29686-3.64383 0-6.65012 2.85222-6.84163 6.491-.07348 1.396.01099 2.882-1.23624 3.8174-.58049.4354-.92213 1.1186-.92213 1.8443 0 .9981.7818 1.8473 1.8 1.8473h14.4c1.0182 0 1.8-.8492 1.8-1.8473 0-.7257-.3416-1.4089-.9221-1.8443-.0266-.0199-.0525-.0401-.0779-.0605" stroke-linecap="round" stroke-linejoin="round"/><path d="m10 3.125c0 .82843.6716 1.875 1.5 1.875s1.5-1.04657 1.5-1.875-.6716-1.125-1.5-1.125-1.5.29657-1.5 1.125z"/><g stroke-linecap="round"><path d="m14.5 19c0 1.6569-1.3431 3-3 3-1.65685 0-3-1.3431-3-3" stroke-linejoin="round"/><path d="m15.55 7.05 4.9 4.9m1.05-2.45c0-1.933-1.567-3.5-3.5-3.5s-3.5 1.567-3.5 3.5 1.567 3.5 3.5 3.5 3.5-1.567 3.5-3.5z"/></g></g></svg>