<svg fill="none" height="24" viewBox="0 0 24 24" width="24" xmlns="http://www.w3.org/2000/svg"><g stroke="#141b34" stroke-linecap="round" stroke-width="1.5"><path d="m9 3c-1.21445.91217-2 2.36445-2 4.0002 0 2.76131 2.23858 4.9998 5 4.9998 2.7614 0 5-2.23849 5-4.9998 0-1.63575-.7856-3.08803-2-4.0002"/><path d="m21 13c-.9122-1.2144-2.3645-2-4.0002-2-2.7613 0-4.9998 2.2386-4.9998 5s2.2385 5 4.9998 5c1.6357 0 3.088-.7856 4.0002-2"/><path d="m3 13c.91221-1.2143 2.36426-2 4-2 2.76142 0 5 2.2386 5 5s-2.23858 5-5 5c-1.6356 0-3.08777-.7853-4-1.9995"/></g></svg>